<svg data-v-fde0c5aa="" xmlns="http://www.w3.org/2000/svg" viewBox="0 0 300 300" class="iconAboveSlogan"><!----><defs data-v-fde0c5aa=""><!----></defs><rect data-v-fde0c5aa="" fill="#E0FBFC" x="0" y="0" width="300px" height="300px" class="logo-background-square"></rect><defs data-v-fde0c5aa=""><!----></defs><g data-v-fde0c5aa="" id="823f0f69-7258-4a2b-8d11-1649d3b55b32" fill="#98C1D9" transform="matrix(2.0815654937752868,0,0,2.0815654937752868,18.12659098115966,154.02756650887747)"><path d="M1.65 1.46L7.49 1.46L7.49 0.70L0.90 0.70L0.90 10.51L1.65 10.51L1.65 6.08L7.29 6.08L7.29 5.36L1.65 5.36ZM19.92 10.60C21.87 10.60 23.44 9.25 23.44 7.06C23.44 4.86 21.87 3.46 19.92 3.46C17.98 3.46 16.41 4.86 16.41 7.06C16.41 9.25 17.98 10.60 19.92 10.60ZM19.92 9.93C18.35 9.93 17.08 8.85 17.08 7.06C17.08 5.26 18.35 4.10 19.92 4.10C21.49 4.10 22.76 5.26 22.76 7.06C22.76 8.85 21.49 9.93 19.92 9.93ZM32.72 0.70L32.72 10.50L33.40 10.50L33.40 0.70ZM43.02 0.70L43.02 10.50L43.71 10.50L43.71 0.70ZM56.52 10.60C58.46 10.60 60.03 9.25 60.03 7.06C60.03 4.86 58.46 3.46 56.52 3.46C54.57 3.46 53.00 4.86 53.00 7.06C53.00 9.25 54.57 10.60 56.52 10.60ZM56.52 9.93C54.95 9.93 53.68 8.85 53.68 7.06C53.68 5.26 54.95 4.10 56.52 4.10C58.09 4.10 59.36 5.26 59.36 7.06C59.36 8.85 58.09 9.93 56.52 9.93ZM78.90 3.58L78.15 3.58L76.08 9.70L73.98 3.58L73.49 3.58L71.37 9.70L69.29 3.58L68.53 3.58L70.99 10.50L71.75 10.50L72.87 7.49L73.74 4.79L74.58 7.48L75.70 10.50L76.45 10.50ZM93.69 3.58L93.69 5.10C93.11 4.02 91.98 3.50 90.86 3.50C88.93 3.50 87.35 4.93 87.35 7.04C87.35 9.16 88.93 10.61 90.86 10.61C91.98 10.61 93.02 10.11 93.69 9.03L93.69 10.50L94.37 10.50C94.37 8.19 94.37 5.89 94.37 3.58ZM90.86 4.16C94.71 4.16 94.71 9.94 90.86 9.94C89.29 9.94 88.03 8.78 88.03 7.04C88.03 5.31 89.29 4.16 90.86 4.16ZM108.82 4.09C108.29 3.71 107.56 3.46 106.86 3.46C105.07 3.46 103.61 4.68 103.61 6.83C103.61 8.68 104.86 10.18 106.86 10.18C108.15 10.18 109.48 10.77 109.48 12.25C109.48 13.72 108.25 14.34 106.86 14.34C105.48 14.34 104.27 13.66 104.27 12.25L103.59 12.25C103.59 14 105.03 15.01 106.86 15.01C108.70 15.01 110.15 14.11 110.15 12.25C110.15 11.06 109.48 10.21 108.26 9.77C109.41 9.25 110.12 8.04 110.12 6.83C110.12 5.71 109.76 5.01 109.27 4.48L109.94 3.70L109.49 3.30ZM106.86 4.14C108.29 4.14 109.45 5.08 109.45 6.83C109.45 8.26 108.29 9.49 106.86 9.49C105.28 9.49 104.30 8.26 104.30 6.83C104.30 5.03 105.45 4.14 106.86 4.14ZM122.36 10.60C123.47 10.60 124.67 10.15 125.34 9.27L124.85 8.88C124.33 9.56 123.27 9.93 122.36 9.93C120.93 9.93 119.69 8.99 119.55 7.36L125.78 7.36C126.04 4.66 124.31 3.47 122.36 3.47C120.41 3.47 118.85 4.97 118.85 7.04C118.85 9.24 120.41 10.60 122.36 10.60ZM119.55 6.76C119.70 5.07 120.93 4.10 122.36 4.10C124.03 4.10 125.15 5.05 125.16 6.76Z"></path></g><defs data-v-fde0c5aa=""><!----></defs><g data-v-fde0c5aa="" id="d01dbcdc-b94d-4a7f-b2ee-1ecc45b52b07" stroke="none" fill="#3D5A80" transform="matrix(0.5016980228156264,0,0,0.5016980228156264,124.91509885921867,91.7042163253482)"><path d="M50 8.25c-14.98 0-27.125 12.145-27.125 27.125v47.126a8.75 8.75 0 0 0 8.75 8.75c3.219 0 6.021-1.744 7.538-4.334h.01c.363-.503.951-.834 1.619-.834s1.256.331 1.619.834h.01c1.518 2.59 4.319 4.334 7.538 4.334 3.218 0 6.021-1.744 7.537-4.334h.01c.363-.503.951-.834 1.619-.834s1.256.331 1.619.834h.011c1.517 2.59 4.319 4.334 7.537 4.334a8.75 8.75 0 0 0 8.75-8.75c0-3.523.083-47.126.083-47.126C77.125 20.395 64.98 8.25 50 8.25zM31.085 34.076a4.805 4.805 0 0 1-1.811-3.761 4.813 4.813 0 1 1 9.561-.793 4.813 4.813 0 1 1 7.751 4.554l-7.751 7.75-7.75-7.75zM50 56.167c-5.681 0-10.379-4.202-11.162-9.667h22.323c-.781 5.465-5.48 9.667-11.161 9.667zm18.753-22.091l-7.751 7.75-7.75-7.75a4.806 4.806 0 0 1-1.812-3.761 4.813 4.813 0 1 1 9.561-.793 4.814 4.814 0 1 1 7.752 4.554z"></path></g><defs data-v-fde0c5aa=""><!----></defs><g data-v-fde0c5aa="" id="cf87e624-c8c8-42c9-926b-7d2c5f3c5055" fill="#E0FBFC" transform="matrix(0.6984991651582964,0,0,0.6984991651582964,52.402210116461504,194.81085595176663)"><path d="M3.68 10.50L4.44 10.50L4.44 1.39L7.98 1.39L7.98 0.71L0.14 0.71L0.14 1.39L3.68 1.39ZM9.28 0.70L9.28 10.50L9.97 10.50L9.97 6.71C9.97 5.26 10.98 4.14 12.43 4.14C13.99 4.14 14.66 5.11 14.66 6.54L14.66 10.50L15.33 10.50L15.33 6.54C15.33 4.73 14.36 3.49 12.43 3.49C11.47 3.50 10.50 3.88 9.94 4.87L9.94 0.70ZM20.24 10.60C21.35 10.60 22.55 10.15 23.23 9.27L22.74 8.88C22.22 9.56 21.15 9.93 20.24 9.93C18.82 9.93 17.57 8.99 17.43 7.36L23.66 7.36C23.93 4.66 22.19 3.47 20.24 3.47C18.30 3.47 16.73 4.97 16.73 7.04C16.73 9.24 18.30 10.60 20.24 10.60ZM17.43 6.76C17.58 5.07 18.82 4.10 20.24 4.10C21.91 4.10 23.03 5.05 23.04 6.76ZM25.44 3.58L25.44 10.50L26.12 10.50L26.12 6.47C26.12 5.21 27.12 4.17 28.41 4.16C28.81 4.16 29.22 4.26 29.58 4.48L29.89 3.92C29.43 3.64 28.92 3.50 28.41 3.51C27.52 3.51 26.54 3.88 26.11 4.82L26.08 3.58ZM34.05 10.60C35.15 10.60 36.36 10.15 37.03 9.27L36.54 8.88C36.02 9.56 34.96 9.93 34.05 9.93C32.62 9.93 31.37 8.99 31.23 7.36L37.46 7.36C37.73 4.66 35.99 3.47 34.05 3.47C32.10 3.47 30.53 4.97 30.53 7.04C30.53 9.24 32.10 10.60 34.05 10.60ZM31.23 6.76C31.39 5.07 32.62 4.10 34.05 4.10C35.71 4.10 36.83 5.05 36.85 6.76ZM52.68 3.58L51.93 3.58L49.85 9.70L47.75 3.58L47.26 3.58L45.15 9.70L43.06 3.58L42.31 3.58L44.77 10.50L45.53 10.50L46.65 7.49L47.52 4.79L48.36 7.48L49.48 10.50L50.23 10.50ZM59.77 3.58L59.77 5.10C59.19 4.02 58.06 3.50 56.94 3.50C55.01 3.50 53.42 4.93 53.42 7.04C53.42 9.16 55.01 10.61 56.94 10.61C58.06 10.61 59.09 10.11 59.77 9.03L59.77 10.50L60.45 10.50C60.45 8.19 60.45 5.89 60.45 3.58ZM56.94 4.16C60.79 4.16 60.79 9.94 56.94 9.94C55.37 9.94 54.11 8.78 54.11 7.04C54.11 5.31 55.37 4.16 56.94 4.16ZM67.48 4.40C66.79 3.75 65.91 3.47 64.90 3.47C63.50 3.46 62.15 4.05 62.16 5.40C62.17 6.79 63.50 7.04 64.85 7.27C65.98 7.45 67.13 7.64 67.10 8.64C67.06 9.73 65.79 9.95 64.95 9.95C64.02 9.95 62.99 9.60 62.41 8.78L61.91 9.23C62.51 10.15 63.71 10.61 64.93 10.61C66.15 10.61 67.73 10.21 67.77 8.68C67.84 7.07 66.15 6.86 64.92 6.65C64.05 6.50 62.85 6.31 62.82 5.39C62.79 4.51 63.83 4.10 64.90 4.12C65.67 4.12 66.36 4.23 67.06 4.84ZM73.15 3.58L73.15 10.50L73.84 10.50L73.84 6.65C73.84 5.22 74.83 4.14 76.26 4.13C77.76 4.12 78.72 4.96 78.72 6.52L78.72 10.50L79.41 10.50L79.41 6.51C79.41 4.59 78.13 3.46 76.29 3.46C75.32 3.47 74.35 3.86 73.82 4.82L73.82 3.58ZM84.39 10.60C86.34 10.60 87.91 9.25 87.91 7.06C87.91 4.86 86.34 3.46 84.39 3.46C82.45 3.46 80.88 4.86 80.88 7.06C80.88 9.25 82.45 10.60 84.39 10.60ZM84.39 9.93C82.82 9.93 81.55 8.85 81.55 7.06C81.55 5.26 82.82 4.10 84.39 4.10C85.96 4.10 87.23 5.26 87.23 7.06C87.23 8.85 85.96 9.93 84.39 9.93ZM93.34 3.58L93.34 10.50L94.02 10.50L94.02 6.47C94.02 5.21 95.02 4.17 96.31 4.16C96.71 4.16 97.12 4.26 97.48 4.48L97.79 3.92C97.33 3.64 96.82 3.50 96.31 3.51C95.42 3.51 94.44 3.88 94.01 4.82L93.98 3.58ZM101.95 10.60C103.05 10.60 104.26 10.15 104.93 9.27L104.44 8.88C103.92 9.56 102.86 9.93 101.95 9.93C100.52 9.93 99.27 8.99 99.13 7.36L105.36 7.36C105.63 4.66 103.89 3.47 101.95 3.47C100.00 3.47 98.43 4.97 98.43 7.04C98.43 9.24 100.00 10.60 101.95 10.60ZM99.13 6.76C99.29 5.07 100.52 4.10 101.95 4.10C103.61 4.10 104.73 5.05 104.75 6.76ZM112.31 4.40C111.62 3.75 110.74 3.47 109.73 3.47C108.33 3.46 106.97 4.05 106.99 5.40C107.00 6.79 108.33 7.04 109.68 7.27C110.81 7.45 111.96 7.64 111.93 8.64C111.89 9.73 110.61 9.95 109.77 9.95C108.85 9.95 107.81 9.60 107.24 8.78L106.74 9.23C107.34 10.15 108.54 10.61 109.76 10.61C110.98 10.61 112.56 10.21 112.60 8.68C112.67 7.07 110.98 6.86 109.75 6.65C108.88 6.50 107.67 6.31 107.65 5.39C107.62 4.51 108.65 4.10 109.73 4.12C110.50 4.12 111.19 4.23 111.89 4.84ZM117.64 9.97C116.06 9.97 114.84 8.75 114.84 7.06C114.84 5.36 116.03 4.14 117.64 4.14C119.21 4.14 120.47 5.10 120.47 7.04C120.47 8.99 119.21 9.97 117.64 9.97ZM114.79 13.38L114.79 8.90C115.37 10.05 116.47 10.63 117.64 10.63C119.59 10.63 121.16 9.37 121.16 7.04C121.16 4.82 119.67 3.56 117.80 3.49C116.45 3.49 115.35 4.17 114.80 5.22L114.80 3.58L114.13 3.58L114.13 13.38ZM126.03 10.60C127.97 10.60 129.54 9.25 129.54 7.06C129.54 4.86 127.97 3.46 126.03 3.46C124.08 3.46 122.51 4.86 122.51 7.06C122.51 9.25 124.08 10.60 126.03 10.60ZM126.03 9.93C124.46 9.93 123.19 8.85 123.19 7.06C123.19 5.26 124.46 4.10 126.03 4.10C127.60 4.10 128.87 5.26 128.87 7.06C128.87 8.85 127.60 9.93 126.03 9.93ZM131.12 3.58L131.12 10.50L131.81 10.50L131.81 6.65C131.81 5.22 132.80 4.14 134.23 4.13C135.73 4.12 136.70 4.96 136.70 6.52L136.70 10.50L137.38 10.50L137.38 6.51C137.38 4.59 136.11 3.46 134.26 3.46C133.29 3.47 132.33 3.86 131.80 4.82L131.80 3.58ZM144.34 4.40C143.65 3.75 142.77 3.47 141.76 3.47C140.36 3.46 139.01 4.05 139.02 5.40C139.03 6.79 140.36 7.04 141.71 7.27C142.84 7.45 143.99 7.64 143.96 8.64C143.92 9.73 142.65 9.95 141.81 9.95C140.88 9.95 139.85 9.60 139.27 8.78L138.77 9.23C139.37 10.15 140.57 10.61 141.79 10.61C143.01 10.61 144.59 10.21 144.63 8.68C144.70 7.07 143.01 6.86 141.78 6.65C140.91 6.50 139.71 6.31 139.68 5.39C139.65 4.51 140.69 4.10 141.76 4.12C142.53 4.12 143.22 4.23 143.92 4.84ZM149.28 10.60C150.39 10.60 151.59 10.15 152.26 9.27L151.77 8.88C151.26 9.56 150.19 9.93 149.28 9.93C147.85 9.93 146.61 8.99 146.47 7.36L152.70 7.36C152.96 4.66 151.23 3.47 149.28 3.47C147.34 3.47 145.77 4.97 145.77 7.04C145.77 9.24 147.34 10.60 149.28 10.60ZM146.47 6.76C146.62 5.07 147.85 4.10 149.28 4.10C150.95 4.10 152.07 5.05 152.08 6.76ZM159.71 10.50L159.71 4.24L161.99 4.24L161.99 3.64L159.71 3.64L159.71 3.02C159.71 1.82 160.22 1.29 161.08 1.29C161.50 1.29 161.77 1.41 162.15 1.64L162.48 1.13C162.09 0.84 161.63 0.66 161.11 0.66C159.59 0.66 159.04 1.65 159.04 3.02L159.04 3.64L157.63 3.64L157.63 4.24L159.04 4.24L159.04 10.50ZM166.22 10.60C168.17 10.60 169.74 9.25 169.74 7.06C169.74 4.86 168.17 3.46 166.22 3.46C164.28 3.46 162.71 4.86 162.71 7.06C162.71 9.25 164.28 10.60 166.22 10.60ZM166.22 9.93C164.65 9.93 163.38 8.85 163.38 7.06C163.38 5.26 164.65 4.10 166.22 4.10C167.79 4.10 169.06 5.26 169.06 7.06C169.06 8.85 167.79 9.93 166.22 9.93ZM171.32 3.58L171.32 10.50L172.00 10.50L172.00 6.47C172.00 5.21 173.00 4.17 174.29 4.16C174.69 4.16 175.10 4.26 175.46 4.48L175.77 3.92C175.31 3.64 174.80 3.50 174.29 3.51C173.40 3.51 172.42 3.88 171.99 4.82L171.96 3.58ZM181.57 1.57L181.57 3.58L180.10 3.58L180.10 4.16L181.57 4.16L181.57 8.37C181.57 9.73 182.04 10.60 183.51 10.60C183.95 10.60 184.38 10.46 184.81 10.25L184.58 9.69C184.23 9.86 183.85 9.97 183.51 9.97C182.43 9.97 182.24 9.31 182.24 8.37L182.24 4.16L184.59 4.16L184.59 3.58L182.24 3.58L182.24 1.50ZM186.17 0.70L186.17 10.50L186.86 10.50L186.86 6.71C186.86 5.26 187.87 4.14 189.32 4.14C190.88 4.14 191.55 5.11 191.55 6.54L191.55 10.50L192.22 10.50L192.22 6.54C192.22 4.73 191.25 3.49 189.32 3.49C188.36 3.50 187.39 3.88 186.83 4.87L186.83 0.70ZM199.98 3.58L199.98 5.10C199.40 4.02 198.27 3.50 197.15 3.50C195.22 3.50 193.63 4.93 193.63 7.04C193.63 9.16 195.22 10.61 197.15 10.61C198.27 10.61 199.30 10.11 199.98 9.03L199.98 10.50L200.66 10.50C200.66 8.19 200.66 5.89 200.66 3.58ZM197.15 4.16C201.00 4.16 201.00 9.94 197.15 9.94C195.58 9.94 194.32 8.78 194.32 7.04C194.32 5.31 195.58 4.16 197.15 4.16ZM203.43 1.57L203.43 3.58L201.96 3.58L201.96 4.16L203.43 4.16L203.43 8.37C203.43 9.73 203.91 10.60 205.38 10.60C205.81 10.60 206.25 10.46 206.68 10.25L206.44 9.69C206.09 9.86 205.72 9.97 205.38 9.97C204.30 9.97 204.11 9.31 204.11 8.37L204.11 4.16L206.46 4.16L206.46 3.58L204.11 3.58L204.11 1.50ZM218.13 10.50L218.13 3.57L217.45 3.57L217.45 7.42C217.45 8.85 216.45 9.93 215.03 9.94C213.53 9.95 212.56 9.11 212.56 7.55L212.56 3.57L211.88 3.57L211.88 7.56C211.88 9.48 213.15 10.61 215.00 10.61C215.96 10.60 216.93 10.21 217.46 9.25L217.46 10.50ZM225.11 4.40C224.42 3.75 223.54 3.47 222.53 3.47C221.13 3.46 219.77 4.05 219.79 5.40C219.80 6.79 221.13 7.04 222.47 7.27C223.61 7.45 224.76 7.64 224.73 8.64C224.69 9.73 223.41 9.95 222.57 9.95C221.65 9.95 220.61 9.60 220.04 8.78L219.53 9.23C220.14 10.15 221.34 10.61 222.56 10.61C223.78 10.61 225.36 10.21 225.40 8.68C225.47 7.07 223.78 6.86 222.54 6.65C221.68 6.50 220.47 6.31 220.44 5.39C220.42 4.51 221.45 4.10 222.53 4.12C223.30 4.12 223.99 4.23 224.69 4.84ZM230.05 10.60C231.15 10.60 232.36 10.15 233.03 9.27L232.54 8.88C232.02 9.56 230.96 9.93 230.05 9.93C228.62 9.93 227.37 8.99 227.23 7.36L233.46 7.36C233.73 4.66 231.99 3.47 230.05 3.47C228.10 3.47 226.53 4.97 226.53 7.04C226.53 9.24 228.10 10.60 230.05 10.60ZM227.23 6.76C227.39 5.07 228.62 4.10 230.05 4.10C231.71 4.10 232.83 5.05 232.85 6.76ZM235.24 3.58L235.24 10.50L235.93 10.50L235.93 6.47C235.93 5.21 236.92 4.17 238.21 4.16C238.62 4.16 239.02 4.26 239.39 4.48L239.69 3.92C239.23 3.64 238.73 3.50 238.21 3.51C237.33 3.51 236.35 3.88 235.91 4.82L235.89 3.58ZM240.73 3.58L240.73 10.50L241.42 10.50L241.42 6.65C241.42 5.22 242.41 4.14 243.84 4.13C245.34 4.12 246.30 4.96 246.30 6.52L246.30 10.50L246.99 10.50L246.99 6.51C246.99 4.59 245.71 3.46 243.87 3.46C242.90 3.47 241.93 3.86 241.40 4.82L241.40 3.58ZM254.74 3.58L254.74 5.10C254.17 4.02 253.04 3.50 251.92 3.50C249.98 3.50 248.40 4.93 248.40 7.04C248.40 9.16 249.98 10.61 251.92 10.61C253.04 10.61 254.07 10.11 254.74 9.03L254.74 10.50L255.43 10.50C255.43 8.19 255.43 5.89 255.43 3.58ZM251.92 4.16C255.77 4.16 255.77 9.94 251.92 9.94C250.35 9.94 249.09 8.78 249.09 7.04C249.09 5.31 250.35 4.16 251.92 4.16ZM268.23 10.50L268.23 6.36C268.23 4.63 267.02 3.44 265.33 3.44C264.26 3.44 263.19 4.02 262.77 5.15C262.36 3.92 261.25 3.44 260.20 3.44C259.31 3.44 258.43 3.82 257.95 4.73L257.94 3.58L257.29 3.58L257.29 10.50L257.98 10.50L257.98 6.40C257.98 5.07 258.87 4.10 260.19 4.10C261.51 4.10 262.42 5.07 262.42 6.40L262.42 10.50L263.10 10.50L263.10 6.40C263.10 5.07 264.01 4.09 265.33 4.09C266.64 4.09 267.54 5.03 267.54 6.36L267.54 10.50ZM273.28 10.60C274.39 10.60 275.59 10.15 276.26 9.27L275.77 8.88C275.25 9.56 274.19 9.93 273.28 9.93C271.85 9.93 270.61 8.99 270.47 7.36L276.70 7.36C276.96 4.66 275.23 3.47 273.28 3.47C271.33 3.47 269.77 4.97 269.77 7.04C269.77 9.24 271.33 10.60 273.28 10.60ZM270.47 6.76C270.62 5.07 271.85 4.10 273.28 4.10C274.95 4.10 276.07 5.05 276.08 6.76ZM278.21 10.08C278.21 10.81 279.31 10.81 279.31 10.08C279.31 9.35 278.21 9.35 278.21 10.08Z"></path></g></svg>