<svg data-v-fde0c5aa="" xmlns="http://www.w3.org/2000/svg" viewBox="0 0 300 300" class="iconAbove"><!----><defs data-v-fde0c5aa=""><!----></defs><rect data-v-fde0c5aa="" fill="#E0FBFC" x="0" y="0" width="300px" height="300px" class="logo-background-square"></rect><defs data-v-fde0c5aa=""><!----></defs><g data-v-fde0c5aa="" id="ce638627-4a0b-4b69-a5b2-93ee66d4adb3" fill="#98C1D9" transform="matrix(4.705334127106678,0,0,4.705334127106678,-3.1727234841727157,189.37293283378395)"><path d="M1.65 1.46L7.49 1.46L7.49 0.70L0.90 0.70L0.90 10.51L1.65 10.51L1.65 6.08L7.29 6.08L7.29 5.36L1.65 5.36ZM12.22 10.60C14.17 10.60 15.74 9.25 15.74 7.06C15.74 4.86 14.17 3.46 12.22 3.46C10.28 3.46 8.71 4.86 8.71 7.06C8.71 9.25 10.28 10.60 12.22 10.60ZM12.22 9.93C10.65 9.93 9.38 8.85 9.38 7.06C9.38 5.26 10.65 4.10 12.22 4.10C13.79 4.10 15.06 5.26 15.06 7.06C15.06 8.85 13.79 9.93 12.22 9.93ZM17.32 0.70L17.32 10.50L18.00 10.50L18.00 0.70ZM19.92 0.70L19.92 10.50L20.61 10.50L20.61 0.70ZM25.72 10.60C27.66 10.60 29.23 9.25 29.23 7.06C29.23 4.86 27.66 3.46 25.72 3.46C23.77 3.46 22.20 4.86 22.20 7.06C22.20 9.25 23.77 10.60 25.72 10.60ZM25.72 9.93C24.15 9.93 22.88 8.85 22.88 7.06C22.88 5.26 24.15 4.10 25.72 4.10C27.29 4.10 28.56 5.26 28.56 7.06C28.56 8.85 27.29 9.93 25.72 9.93ZM40.40 3.58L39.65 3.58L37.58 9.70L35.48 3.58L34.99 3.58L32.87 9.70L30.79 3.58L30.03 3.58L32.49 10.50L33.25 10.50L34.37 7.49L35.24 4.79L36.08 7.48L37.20 10.50L37.95 10.50ZM47.49 3.58L47.49 5.10C46.91 4.02 45.78 3.50 44.66 3.50C42.73 3.50 41.15 4.93 41.15 7.04C41.15 9.16 42.73 10.61 44.66 10.61C45.78 10.61 46.82 10.11 47.49 9.03L47.49 10.50L48.17 10.50C48.17 8.19 48.17 5.89 48.17 3.58ZM44.66 4.16C48.51 4.16 48.51 9.94 44.66 9.94C43.09 9.94 41.83 8.78 41.83 7.04C41.83 5.31 43.09 4.16 44.66 4.16ZM54.92 4.09C54.39 3.71 53.66 3.46 52.96 3.46C51.17 3.46 49.71 4.68 49.71 6.83C49.71 8.68 50.96 10.18 52.96 10.18C54.25 10.18 55.58 10.77 55.58 12.25C55.58 13.72 54.35 14.34 52.96 14.34C51.58 14.34 50.37 13.66 50.37 12.25L49.69 12.25C49.69 14 51.13 15.01 52.96 15.01C54.80 15.01 56.25 14.11 56.25 12.25C56.25 11.06 55.58 10.21 54.36 9.77C55.51 9.25 56.22 8.04 56.22 6.83C56.22 5.71 55.86 5.01 55.37 4.48L56.04 3.70L55.59 3.30ZM52.96 4.14C54.39 4.14 55.55 5.08 55.55 6.83C55.55 8.26 54.39 9.49 52.96 9.49C51.38 9.49 50.40 8.26 50.40 6.83C50.40 5.03 51.55 4.14 52.96 4.14ZM60.76 10.60C61.87 10.60 63.07 10.15 63.74 9.27L63.25 8.88C62.73 9.56 61.67 9.93 60.76 9.93C59.33 9.93 58.09 8.99 57.95 7.36L64.18 7.36C64.44 4.66 62.71 3.47 60.76 3.47C58.81 3.47 57.25 4.97 57.25 7.04C57.25 9.24 58.81 10.60 60.76 10.60ZM57.95 6.76C58.10 5.07 59.33 4.10 60.76 4.10C62.43 4.10 63.55 5.05 63.56 6.76Z"></path></g><defs data-v-fde0c5aa=""><!----></defs><g data-v-fde0c5aa="" id="d72411ae-16d6-4c1e-8059-75ef82adef3f" stroke="none" fill="#3D5A80" transform="matrix(1.622470422740886,0,0,1.622470422740886,68.87647886295571,26.614619012387692)"><path d="M50 8.25c-14.98 0-27.125 12.145-27.125 27.125v47.126a8.75 8.75 0 0 0 8.75 8.75c3.219 0 6.021-1.744 7.538-4.334h.01c.363-.503.951-.834 1.619-.834s1.256.331 1.619.834h.01c1.518 2.59 4.319 4.334 7.538 4.334 3.218 0 6.021-1.744 7.537-4.334h.01c.363-.503.951-.834 1.619-.834s1.256.331 1.619.834h.011c1.517 2.59 4.319 4.334 7.537 4.334a8.75 8.75 0 0 0 8.75-8.75c0-3.523.083-47.126.083-47.126C77.125 20.395 64.98 8.25 50 8.25zM31.085 34.076a4.805 4.805 0 0 1-1.811-3.761 4.813 4.813 0 1 1 9.561-.793 4.813 4.813 0 1 1 7.751 4.554l-7.751 7.75-7.75-7.75zM50 56.167c-5.681 0-10.379-4.202-11.162-9.667h22.323c-.781 5.465-5.48 9.667-11.161 9.667zm18.753-22.091l-7.751 7.75-7.75-7.75a4.806 4.806 0 0 1-1.812-3.761 4.813 4.813 0 1 1 9.561-.793 4.814 4.814 0 1 1 7.752 4.554z"></path></g><!----></svg>