<svg data-v-fde0c5aa="" xmlns="http://www.w3.org/2000/svg" viewBox="0 0 300 300" class="iconLeft"><!----><defs data-v-fde0c5aa=""><!----></defs><rect data-v-fde0c5aa="" fill="#E0FBFC" x="0" y="0" width="300px" height="300px" class="logo-background-square"></rect><defs data-v-fde0c5aa=""><!----></defs><g data-v-fde0c5aa="" id="f0cccfce-4fe2-4add-8434-a8f11a047e5d" fill="#98C1D9" transform="matrix(2.7756213426134586,0,0,2.7756213426134586,84.5807328343166,131.53022499252864)"><path d="M6.50 1.13L1.12 1.13C0.92 1.13 0.81 1.41 0.81 1.72L0.81 9.63C0.81 10.19 2.44 10.19 2.44 9.63L2.44 6.22L5.38 6.22C5.94 6.22 5.94 4.77 5.38 4.77L2.45 4.77L2.45 2.58L5.80 2.58C6.45 2.58 7.15 1.13 6.50 1.13ZM10.15 10.05C12.24 10.05 13.45 8.82 13.45 6.72C13.45 4.61 12.24 3.36 10.15 3.36C8.06 3.36 6.85 4.61 6.85 6.72C6.85 8.82 8.06 10.05 10.15 10.05ZM10.15 8.82C9.10 8.82 8.48 8.06 8.48 6.72C8.48 5.35 9.10 4.59 10.15 4.59C11.20 4.59 11.82 5.35 11.82 6.72C11.82 8.06 11.20 8.82 10.15 8.82ZM17.65 8.48C17.39 8.57 17.16 8.62 17.00 8.62C16.62 8.62 16.46 8.36 16.46 7.76L16.46 0.71C16.46 0.04 14.83 0.74 14.83 1.41L14.83 8.15C14.83 9.56 15.51 10.05 16.38 10.05C16.79 10.05 17.22 9.94 17.65 9.79C18.26 9.52 18.24 8.26 17.65 8.48ZM22.33 8.48C22.06 8.57 21.84 8.62 21.67 8.62C21.29 8.62 21.14 8.36 21.14 7.76L21.14 0.71C21.14 0.04 19.50 0.74 19.50 1.41L19.50 8.15C19.50 9.56 20.19 10.05 21.06 10.05C21.46 10.05 21.90 9.94 22.33 9.79C22.93 9.52 22.92 8.26 22.33 8.48ZM26.85 10.05C28.94 10.05 30.16 8.82 30.16 6.72C30.16 4.61 28.94 3.36 26.85 3.36C24.77 3.36 23.55 4.61 23.55 6.72C23.55 8.82 24.77 10.05 26.85 10.05ZM26.85 8.82C25.80 8.82 25.19 8.06 25.19 6.72C25.19 5.35 25.80 4.59 26.85 4.59C27.90 4.59 28.52 5.35 28.52 6.72C28.52 8.06 27.90 8.82 26.85 8.82ZM38.81 3.78C38.49 5.25 38.11 6.58 37.51 8.01C36.93 6.57 36.55 5.25 36.22 3.78C36.12 3.26 34.33 3.26 34.47 3.78L34.75 4.72C34.47 5.82 34.12 6.90 33.64 8.01C33.07 6.55 32.68 5.25 32.35 3.78C32.26 3.26 30.46 3.26 30.60 3.78C31.23 6.06 32.58 9.27 33.12 9.87C33.36 10.12 33.95 10.12 34.19 9.87C34.59 9.39 35.07 8.19 35.50 6.82C36.06 8.26 36.67 9.52 36.97 9.87C37.23 10.12 37.80 10.11 38.07 9.87C38.61 9.28 39.93 6.06 40.57 3.78C40.71 3.26 38.92 3.26 38.81 3.78ZM48.01 8.48C47.89 8.53 47.80 8.54 47.70 8.54C47.43 8.54 47.29 8.33 47.29 7.76L47.29 6.03C47.29 4.05 46.20 3.37 44.49 3.37C43.08 3.37 42.25 3.65 41.66 4.14C41.20 4.51 41.30 5.56 41.78 5.26C42.35 4.93 43.12 4.69 43.99 4.69C45.16 4.69 45.65 5.08 45.65 6.24L45.65 6.31C45.22 6.09 44.58 5.95 43.68 5.95C42.18 5.95 41.22 6.76 41.22 8.01C41.22 9.25 42.13 10.05 43.53 10.05C44.60 10.05 45.36 9.66 45.82 9.24C46.05 9.81 46.47 10.02 46.96 10.02C47.29 10.02 47.66 9.93 48.01 9.79C48.61 9.53 48.61 8.26 48.01 8.48ZM43.97 8.75C43.16 8.75 42.87 8.37 42.87 7.97C42.87 7.55 43.19 7.15 44.06 7.15C44.87 7.15 45.40 7.29 45.65 7.48L45.65 8.04C45.40 8.34 44.84 8.75 43.97 8.75ZM56.38 2.79C55.54 2.80 54.96 3.23 54.57 3.78C54.07 3.51 53.38 3.36 52.56 3.36C50.64 3.36 49.50 4.17 49.50 5.54C49.50 6.29 49.84 6.86 50.47 7.24C49.90 7.48 49.52 7.91 49.52 8.55C49.52 9.02 49.73 9.31 50.05 9.51C49.71 9.81 49.52 10.22 49.52 10.74C49.52 11.91 50.47 12.87 52.72 12.87C54.73 12.87 55.79 11.90 55.79 10.46C55.79 8.78 53.76 8.71 52.33 8.65C51.67 8.64 51.17 8.55 51.17 8.12C51.17 7.88 51.34 7.73 51.59 7.62C51.88 7.67 52.21 7.70 52.56 7.70C54.50 7.70 55.61 6.90 55.61 5.54C55.61 5.12 55.51 4.76 55.30 4.45C55.55 4.31 55.80 4.26 56.13 4.24C56.63 4.24 56.88 2.77 56.38 2.79ZM52.56 6.51C51.67 6.51 51.16 6.16 51.16 5.54C51.16 4.90 51.67 4.55 52.56 4.55C53.45 4.55 53.97 4.90 53.97 5.54C53.97 6.16 53.45 6.51 52.56 6.51ZM51.52 9.86C51.63 9.86 51.97 9.87 52.21 9.88C53.21 9.91 54.15 9.91 54.15 10.64C54.15 11.27 53.59 11.68 52.72 11.68C51.77 11.68 51.17 11.27 51.17 10.63C51.17 10.26 51.30 10.01 51.52 9.86ZM63.20 6.23C63.20 4.38 62.17 3.37 60.13 3.37C58.00 3.37 56.90 4.66 56.90 6.66C56.90 9.04 58.62 10.04 60.34 10.04C61.12 10.04 61.87 9.83 62.51 9.42C62.90 9.17 62.90 8.02 62.38 8.25C61.67 8.57 61.05 8.75 60.47 8.75C59.49 8.75 58.58 8.27 58.55 7.28C58.93 7.34 59.35 7.36 59.72 7.36C61.49 7.36 63.20 6.89 63.20 6.23ZM58.58 6.10C58.59 5.03 59.30 4.62 60.20 4.62C61.18 4.62 61.70 5.08 61.70 5.77C61.70 5.98 60.79 6.16 59.63 6.16C59.29 6.16 58.94 6.15 58.58 6.10Z"></path></g><defs data-v-fde0c5aa=""><!----></defs><g data-v-fde0c5aa="" id="5c8127e3-4def-4c64-9331-9ebd1c9445ba" stroke="none" fill="#3D5A80" transform="matrix(0.6235757811696058,0,0,0.6235757811696058,25.73570400574527,118.97679327019172)"><path d="M50 8.25c-14.98 0-27.125 12.145-27.125 27.125v47.126a8.75 8.75 0 0 0 8.75 8.75c3.219 0 6.021-1.744 7.538-4.334h.01c.363-.503.951-.834 1.619-.834s1.256.331 1.619.834h.01c1.518 2.59 4.319 4.334 7.538 4.334 3.218 0 6.021-1.744 7.537-4.334h.01c.363-.503.951-.834 1.619-.834s1.256.331 1.619.834h.011c1.517 2.59 4.319 4.334 7.537 4.334a8.75 8.75 0 0 0 8.75-8.75c0-3.523.083-47.126.083-47.126C77.125 20.395 64.98 8.25 50 8.25zM31.085 34.076a4.805 4.805 0 0 1-1.811-3.761 4.813 4.813 0 1 1 9.561-.793 4.813 4.813 0 1 1 7.751 4.554l-7.751 7.75-7.75-7.75zM50 56.167c-5.681 0-10.379-4.202-11.162-9.667h22.323c-.781 5.465-5.48 9.667-11.161 9.667zm18.753-22.091l-7.751 7.75-7.75-7.75a4.806 4.806 0 0 1-1.812-3.761 4.813 4.813 0 1 1 9.561-.793 4.814 4.814 0 1 1 7.752 4.554z"></path></g><!----></svg>