<svg data-v-fde0c5aa="" xmlns="http://www.w3.org/2000/svg" viewBox="0 0 300 300" class="iconAboveSlogan"><!----><defs data-v-fde0c5aa=""><!----></defs><rect data-v-fde0c5aa="" fill="#E0FBFC" x="0" y="0" width="300px" height="300px" class="logo-background-square"></rect><defs data-v-fde0c5aa=""><!----></defs><g data-v-fde0c5aa="" id="bda87371-747c-4baf-96cc-0bc478002154" fill="#98C1D9" transform="matrix(2.2458323187277354,0,0,2.2458323187277354,17.956292531058494,156.25452499772223)"><path d="M1.67 5.85C2.84 5.85 3.85 5.85 5.03 5.85C6.34 5.85 7.73 6.40 7.74 7.92C7.74 9.48 6.16 9.77 4.93 9.77L1.67 9.77ZM1.67 1.34L4.93 1.34C6.15 1.34 7.43 1.95 7.43 3.37C7.43 4.77 6.20 5.14 5.03 5.14L1.67 5.14ZM4.93 0.70C3.50 0.70 2.32 0.70 0.91 0.70L0.91 10.50C2.34 10.50 3.50 10.50 4.93 10.50C6.61 10.50 8.48 9.95 8.48 7.94C8.48 6.80 7.78 5.81 6.55 5.47C7.53 5.17 8.15 4.38 8.15 3.37C8.15 1.51 6.58 0.70 4.93 0.70ZM13.36 10.60C15.30 10.60 16.87 9.25 16.87 7.06C16.87 4.86 15.30 3.46 13.36 3.46C11.41 3.46 9.84 4.86 9.84 7.06C9.84 9.25 11.41 10.60 13.36 10.60ZM13.36 9.93C11.79 9.93 10.51 8.85 10.51 7.06C10.51 5.26 11.79 4.10 13.36 4.10C14.92 4.10 16.20 5.26 16.20 7.06C16.20 8.85 14.92 9.93 13.36 9.93ZM21.64 10.60C23.59 10.60 25.16 9.25 25.16 7.06C25.16 4.86 23.59 3.46 21.64 3.46C19.70 3.46 18.13 4.86 18.13 7.06C18.13 9.25 19.70 10.60 21.64 10.60ZM21.64 9.93C20.08 9.93 18.80 8.85 18.80 7.06C18.80 5.26 20.08 4.10 21.64 4.10C23.21 4.10 24.49 5.26 24.49 7.06C24.49 8.85 23.21 9.93 21.64 9.93ZM29.93 10.60C31.88 10.60 33.45 9.25 33.45 7.06C33.45 4.86 31.88 3.46 29.93 3.46C27.99 3.46 26.42 4.86 26.42 7.06C26.42 9.25 27.99 10.60 29.93 10.60ZM29.93 9.93C28.36 9.93 27.09 8.85 27.09 7.06C27.09 5.26 28.36 4.10 29.93 4.10C31.50 4.10 32.77 5.26 32.77 7.06C32.77 8.85 31.50 9.93 29.93 9.93ZM34.76 10.08C34.76 10.81 35.87 10.81 35.87 10.08C35.87 9.35 34.76 9.35 34.76 10.08ZM37.44 10.08C37.44 10.81 38.54 10.81 38.54 10.08C38.54 9.35 37.44 9.35 37.44 10.08ZM40.11 10.08C40.11 10.81 41.22 10.81 41.22 10.08C41.22 9.35 40.11 9.35 40.11 10.08ZM47.04 0.70L47.04 10.50L47.80 10.50L47.80 2.41L54.40 10.50L54.70 10.50L54.70 0.70L53.96 0.70L53.96 8.81L47.36 0.70ZM59.95 10.60C61.89 10.60 63.46 9.25 63.46 7.06C63.46 4.86 61.89 3.46 59.95 3.46C58.00 3.46 56.43 4.86 56.43 7.06C56.43 9.25 58.00 10.60 59.95 10.60ZM59.95 9.93C58.38 9.93 57.11 8.85 57.11 7.06C57.11 5.26 58.38 4.10 59.95 4.10C61.52 4.10 62.79 5.26 62.79 7.06C62.79 8.85 61.52 9.93 59.95 9.93ZM65.95 1.57L65.95 3.58L64.48 3.58L64.48 4.16L65.95 4.16L65.95 8.37C65.95 9.73 66.43 10.60 67.90 10.60C68.33 10.60 68.77 10.46 69.20 10.25L68.96 9.69C68.61 9.86 68.24 9.97 67.90 9.97C66.82 9.97 66.63 9.31 66.63 8.37L66.63 4.16L68.98 4.16L68.98 3.58L66.63 3.58L66.63 1.50ZM75.29 1.46L81.13 1.46L81.13 0.70L74.54 0.70L74.54 10.51L75.29 10.51L75.29 6.08L80.93 6.08L80.93 5.36L75.29 5.36ZM85.86 10.60C87.81 10.60 89.38 9.25 89.38 7.06C89.38 4.86 87.81 3.46 85.86 3.46C83.92 3.46 82.35 4.86 82.35 7.06C82.35 9.25 83.92 10.60 85.86 10.60ZM85.86 9.93C84.29 9.93 83.02 8.85 83.02 7.06C83.02 5.26 84.29 4.10 85.86 4.10C87.43 4.10 88.70 5.26 88.70 7.06C88.70 8.85 87.43 9.93 85.86 9.93ZM97.20 10.50L97.20 3.57L96.52 3.57L96.52 7.42C96.52 8.85 95.52 9.93 94.09 9.94C92.60 9.95 91.63 9.11 91.63 7.55L91.63 3.57L90.94 3.57L90.94 7.56C90.94 9.48 92.22 10.61 94.07 10.61C95.03 10.60 96.00 10.21 96.53 9.25L96.53 10.50ZM99.01 3.58L99.01 10.50L99.69 10.50L99.69 6.65C99.69 5.22 100.69 4.14 102.12 4.13C103.61 4.12 104.58 4.96 104.58 6.52L104.58 10.50L105.27 10.50L105.27 6.51C105.27 4.59 103.99 3.46 102.14 3.46C101.18 3.47 100.21 3.86 99.68 4.82L99.68 3.58ZM110.18 4.13C111.78 4.13 113.01 5.31 113.01 7.03C113.01 8.75 111.80 9.94 110.18 9.94C108.63 9.94 107.35 8.96 107.35 7.04C107.35 5.10 108.63 4.13 110.18 4.13ZM113.02 0.70L113.02 5.10C112.46 3.98 111.34 3.47 110.15 3.47C108.22 3.47 106.68 4.76 106.68 7.04C106.68 9.34 108.21 10.61 110.14 10.61C111.31 10.61 112.45 10.02 113.02 8.97L113.02 10.50L113.69 10.50L113.69 0.70ZM115.74 0.70C115.74 3.44 115.74 5.78 115.74 8.53L116.45 8.53L116.45 0.70ZM115.57 10.01C115.57 10.74 116.68 10.74 116.68 10.01C116.68 9.28 115.57 9.28 115.57 10.01Z"></path></g><defs data-v-fde0c5aa=""><!----></defs><g data-v-fde0c5aa="" id="42fcf9a6-4cb8-4aa4-ae55-beed457b3d28" stroke="none" fill="#3D5A80" transform="matrix(0.41620284366049204,0,0,0.41620284366049204,129.18985940466325,101.84768213582272)"><path d="M50 8.25c-14.98 0-27.125 12.145-27.125 27.125v47.126a8.75 8.75 0 0 0 8.75 8.75c3.219 0 6.021-1.744 7.539-4.334h.01c.363-.503.951-.834 1.619-.834s1.256.331 1.619.834h.01c1.518 2.59 4.318 4.334 7.537 4.334s6.021-1.744 7.537-4.334h.01c.363-.503.951-.834 1.619-.834s1.256.331 1.619.834h.012c1.516 2.59 4.318 4.334 7.537 4.334a8.75 8.75 0 0 0 8.75-8.75c0-3.523.082-47.126.082-47.126C77.125 20.395 64.98 8.25 50 8.25zM38.917 42.417a8.203 8.203 0 0 1-4.418-1.291l2.749-2.749a4.5 4.5 0 0 0 1.669.327 4.538 4.538 0 0 0 4.537-4.537c0-.591-.121-1.151-.326-1.669l2.748-2.748a8.201 8.201 0 0 1 1.29 4.417 8.249 8.249 0 0 1-8.249 8.25zM50 56.834a4.001 4.001 0 1 1 .002-8.002A4.001 4.001 0 0 1 50 56.834zm11.083-14.417a8.25 8.25 0 0 1-8.25-8.25c0-1.541.43-2.977 1.165-4.21l2.795 2.795a4.511 4.511 0 0 0-.247 1.415 4.537 4.537 0 0 0 4.537 4.537c.497 0 .967-.1 1.415-.248l2.796 2.796a8.2 8.2 0 0 1-4.211 1.165z"></path></g><defs data-v-fde0c5aa=""><!----></defs><g data-v-fde0c5aa="" id="7db7a51d-890a-4408-a332-aab8501e6bc1" fill="#3D5A80" transform="matrix(0.36364989819127747,0,0,0.36364989819127747,52.34726703669062,188.79842389842656)"><path d="M8.22 3.92L8.02 3.92L0.73 3.92L0.52 3.92L0.42 3.92L0.42 5.96L0.77 5.96C0.97 5.96 1.05 5.85 1.06 5.63C1.06 5.53 1.09 5.17 1.12 4.52L4.02 4.52L4.02 13.26C3.85 13.26 3.71 13.27 3.57 13.27C3.43 13.27 3.32 13.29 3.25 13.29L3.12 13.29C2.94 13.30 2.84 13.38 2.84 13.54L2.84 13.82L4.02 13.82L4.73 13.82L5.92 13.82L5.92 13.54C5.92 13.38 5.82 13.30 5.64 13.29L5.50 13.29C5.43 13.29 5.33 13.27 5.19 13.27C5.05 13.27 4.90 13.26 4.73 13.26L4.73 4.52L7.62 4.52C7.66 5.24 7.67 5.60 7.67 5.63C7.69 5.85 7.78 5.96 7.98 5.96L8.32 5.96L8.32 3.92ZM23.63 13.29L23.55 13.29L23.45 13.29C23.41 13.29 23.34 13.27 23.24 13.27C23.14 13.27 23.02 13.26 22.89 13.26L22.89 9.37C22.89 8.96 22.85 8.60 22.75 8.27C22.65 7.95 22.51 7.67 22.32 7.45C22.12 7.22 21.88 7.06 21.59 6.93C21.29 6.80 20.96 6.75 20.58 6.75C20.06 6.75 19.60 6.86 19.18 7.10C18.77 7.34 18.41 7.66 18.09 8.05L18.09 3.64L17.42 3.64L16.41 3.64L16.41 3.91C16.41 4.06 16.51 4.14 16.69 4.16L16.76 4.16C16.79 4.16 16.83 4.17 16.87 4.17L17.08 4.17C17.18 4.17 17.29 4.19 17.42 4.19L17.42 13.26C17.26 13.26 17.12 13.29 17.01 13.29L16.77 13.29L16.69 13.29C16.51 13.30 16.41 13.38 16.41 13.54L16.41 13.82L17.42 13.82L18.09 13.82L19.10 13.82L19.10 13.54C19.10 13.38 19.00 13.30 18.82 13.29L18.75 13.29L18.63 13.29C18.59 13.29 18.52 13.27 18.42 13.27C18.33 13.27 18.21 13.26 18.09 13.26L18.09 8.60C18.40 8.19 18.75 7.87 19.14 7.63C19.53 7.39 19.95 7.28 20.41 7.28C21.03 7.28 21.49 7.46 21.78 7.83C22.08 8.20 22.23 8.71 22.23 9.37L22.23 13.82L22.89 13.82L23.90 13.82L23.90 13.54C23.90 13.38 23.81 13.30 23.63 13.29ZM35.14 6.73C34.65 6.73 34.20 6.83 33.81 7.00C33.42 7.17 33.10 7.41 32.83 7.71C32.56 8.02 32.35 8.39 32.21 8.81C32.07 9.23 31.99 9.69 31.99 10.19C31.99 10.78 32.07 11.31 32.23 11.77C32.38 12.24 32.59 12.61 32.87 12.94C33.15 13.26 33.49 13.50 33.88 13.66C34.27 13.83 34.71 13.90 35.18 13.90C35.45 13.90 35.71 13.89 35.97 13.83C36.22 13.78 36.47 13.71 36.69 13.62C36.92 13.54 37.13 13.44 37.31 13.31C37.49 13.19 37.65 13.06 37.76 12.92L37.58 12.70C37.55 12.66 37.49 12.63 37.44 12.63C37.39 12.63 37.31 12.66 37.21 12.74C37.11 12.82 36.97 12.91 36.79 13.01C36.62 13.10 36.40 13.17 36.15 13.26C35.90 13.34 35.59 13.38 35.24 13.38C34.85 13.38 34.50 13.31 34.17 13.17C33.85 13.03 33.59 12.84 33.36 12.57C33.14 12.31 32.97 11.97 32.84 11.58C32.72 11.19 32.66 10.71 32.66 10.19L32.66 10.07L37.69 10.07C37.76 10.07 37.80 10.05 37.83 10.01C37.86 9.97 37.88 9.90 37.88 9.80C37.88 9.31 37.81 8.88 37.67 8.50C37.53 8.12 37.35 7.78 37.10 7.53C36.86 7.28 36.57 7.08 36.23 6.94C35.90 6.80 35.53 6.73 35.14 6.73ZM35.15 7.24C35.48 7.24 35.76 7.29 36.02 7.41C36.29 7.52 36.51 7.67 36.69 7.88C36.88 8.09 37.03 8.33 37.13 8.62C37.23 8.92 37.28 9.25 37.28 9.63L32.69 9.63C32.73 9.27 32.82 8.93 32.94 8.64C33.07 8.34 33.24 8.09 33.45 7.88C33.66 7.67 33.91 7.52 34.19 7.41C34.47 7.29 34.79 7.24 35.15 7.24ZM50.64 6.80C50.46 6.76 50.27 6.73 50.06 6.73C49.52 6.73 49.06 6.89 48.68 7.21C48.30 7.53 48.01 7.98 47.78 8.54L47.73 7.07C47.73 6.99 47.70 6.93 47.67 6.90C47.64 6.87 47.59 6.86 47.50 6.86L47.15 6.86L47.15 6.86L46.14 6.86L46.14 7.13C46.14 7.31 46.24 7.36 46.41 7.38C46.49 7.38 46.58 7.38 47.15 7.41L47.15 13.26C46.58 13.29 46.49 13.29 46.41 13.29C46.24 13.30 46.14 13.36 46.14 13.54L46.14 13.82L47.15 13.82L47.81 13.82L47.81 13.82L48.82 13.82L48.82 13.54C48.82 13.36 48.72 13.30 48.55 13.29C48.47 13.29 48.38 13.29 47.81 13.26L47.81 9.30C48.02 8.68 48.30 8.20 48.64 7.88C48.97 7.56 49.41 7.39 49.94 7.39C50.08 7.39 50.20 7.41 50.32 7.42C50.43 7.43 50.54 7.45 50.61 7.48C50.69 7.50 50.74 7.53 50.79 7.55C50.85 7.56 50.89 7.57 50.92 7.57C51.00 7.57 51.04 7.53 51.06 7.46L51.14 7.00C50.99 6.92 50.82 6.85 50.64 6.80ZM62.09 6.73C61.60 6.73 61.15 6.83 60.76 7.00C60.37 7.17 60.05 7.41 59.78 7.71C59.51 8.02 59.30 8.39 59.16 8.81C59.02 9.23 58.94 9.69 58.94 10.19C58.94 10.78 59.02 11.31 59.18 11.77C59.33 12.24 59.54 12.61 59.82 12.94C60.10 13.26 60.44 13.50 60.83 13.66C61.22 13.83 61.66 13.90 62.13 13.90C62.40 13.90 62.66 13.89 62.92 13.83C63.17 13.78 63.42 13.71 63.64 13.62C63.87 13.54 64.08 13.44 64.26 13.31C64.44 13.19 64.60 13.06 64.71 12.92L64.53 12.70C64.50 12.66 64.44 12.63 64.39 12.63C64.34 12.63 64.26 12.66 64.16 12.74C64.06 12.82 63.92 12.91 63.74 13.01C63.57 13.10 63.35 13.17 63.10 13.26C62.85 13.34 62.54 13.38 62.19 13.38C61.80 13.38 61.45 13.31 61.12 13.17C60.80 13.03 60.54 12.84 60.31 12.57C60.09 12.31 59.92 11.97 59.79 11.58C59.67 11.19 59.61 10.71 59.61 10.19L59.61 10.07L64.64 10.07C64.71 10.07 64.75 10.05 64.78 10.01C64.81 9.97 64.83 9.90 64.83 9.80C64.83 9.31 64.76 8.88 64.62 8.50C64.48 8.12 64.30 7.78 64.05 7.53C63.81 7.28 63.52 7.08 63.18 6.94C62.85 6.80 62.48 6.73 62.09 6.73ZM62.10 7.24C62.43 7.24 62.71 7.29 62.97 7.41C63.24 7.52 63.46 7.67 63.64 7.88C63.83 8.09 63.98 8.33 64.08 8.62C64.18 8.92 64.23 9.25 64.23 9.63L59.64 9.63C59.68 9.27 59.77 8.93 59.89 8.64C60.02 8.34 60.19 8.09 60.40 7.88C60.61 7.67 60.86 7.52 61.14 7.41C61.42 7.29 61.74 7.24 62.10 7.24ZM93.55 6.86L93.06 6.86L91.70 6.86L91.70 7.13C91.70 7.28 91.80 7.36 91.98 7.38L92.05 7.38C92.08 7.38 92.11 7.39 92.15 7.39L92.36 7.39C92.46 7.39 92.57 7.41 92.69 7.41L91.06 12.52C91.01 12.63 91 12.73 90.97 12.82C90.94 12.92 90.93 13.02 90.92 13.12C90.87 12.92 90.82 12.73 90.75 12.52L88.90 6.97C88.87 6.87 88.80 6.82 88.70 6.82L88.42 6.82C88.33 6.82 88.26 6.87 88.23 6.97L86.37 12.52C86.32 12.63 86.30 12.73 86.27 12.82L86.18 13.12C86.18 13.09 86.16 12.99 86.13 12.82C86.11 12.73 86.09 12.63 86.06 12.52L84.42 7.41C84.57 7.41 84.73 7.39 84.84 7.39C84.95 7.39 85.04 7.38 85.06 7.38L85.15 7.38C85.33 7.36 85.43 7.28 85.43 7.13L85.43 6.86L84.06 6.85L83.54 6.86L82.99 6.86L82.99 7.13C82.99 7.28 83.08 7.36 83.26 7.38L83.33 7.38L83.40 7.38C83.43 7.38 83.47 7.39 83.52 7.39L83.72 7.39L85.88 13.82L86.34 13.82C86.42 13.82 86.48 13.76 86.51 13.66L88.44 8.01C88.47 7.94 88.49 7.88 88.51 7.81L88.55 7.60L88.59 7.81C88.61 7.88 88.63 7.94 88.66 8.01L90.57 13.66C90.59 13.76 90.66 13.82 90.73 13.82L91.22 13.82L93.37 7.39L93.63 7.39C93.72 7.39 93.76 7.38 93.79 7.38L93.86 7.38C94.04 7.36 94.14 7.28 94.14 7.13L94.14 6.86ZM107.58 13.29L107.48 13.29L107.25 13.29C107.16 13.29 107.04 13.27 106.93 13.27L106.93 9.28C106.93 8.89 106.89 8.55 106.79 8.23C106.69 7.91 106.55 7.64 106.37 7.42C106.19 7.20 105.95 7.03 105.67 6.92C105.39 6.79 105.07 6.73 104.69 6.73C104.19 6.73 103.74 6.83 103.33 7.01C102.93 7.20 102.55 7.48 102.19 7.84L102.30 8.05C102.34 8.13 102.41 8.18 102.51 8.18C102.58 8.18 102.68 8.12 102.77 8.02C102.87 7.92 103.01 7.84 103.18 7.73C103.35 7.62 103.53 7.52 103.77 7.42C104.01 7.32 104.29 7.28 104.62 7.28C105.17 7.28 105.59 7.45 105.87 7.80C106.15 8.15 106.27 8.64 106.27 9.28L106.27 10.01C105.49 10.02 104.82 10.09 104.26 10.21C103.70 10.32 103.24 10.47 102.87 10.65C102.51 10.84 102.26 11.06 102.09 11.31C101.92 11.56 101.84 11.83 101.84 12.12C101.84 12.45 101.89 12.73 101.99 12.95C102.10 13.17 102.24 13.36 102.41 13.50C102.58 13.64 102.79 13.75 103.01 13.82C103.24 13.89 103.46 13.93 103.70 13.93C103.98 13.93 104.24 13.90 104.48 13.85C104.72 13.79 104.93 13.71 105.14 13.61C105.35 13.51 105.55 13.38 105.74 13.23C105.92 13.08 106.11 12.91 106.30 12.73L106.40 13.62C106.43 13.75 106.53 13.82 106.67 13.82L106.68 13.82L106.93 13.82L107.86 13.82L107.86 13.54C107.86 13.38 107.76 13.30 107.58 13.29ZM106.27 12.26C106.11 12.43 105.95 12.60 105.78 12.74C105.62 12.88 105.43 13.01 105.24 13.12C105.04 13.23 104.83 13.30 104.61 13.36C104.38 13.41 104.13 13.44 103.87 13.44C103.68 13.44 103.50 13.43 103.33 13.37C103.17 13.31 103.03 13.24 102.90 13.13C102.77 13.02 102.66 12.88 102.59 12.71C102.51 12.54 102.48 12.35 102.48 12.11C102.48 11.86 102.55 11.63 102.70 11.44C102.86 11.24 103.08 11.09 103.39 10.95C103.70 10.81 104.09 10.70 104.57 10.61C105.04 10.53 105.62 10.47 106.27 10.46ZM120.71 11.06C120.60 10.86 120.46 10.71 120.27 10.57C120.09 10.43 119.88 10.32 119.66 10.23C119.43 10.15 119.18 10.05 118.94 9.98C118.71 9.91 118.47 9.83 118.23 9.76C118.01 9.69 117.80 9.59 117.61 9.49C117.43 9.39 117.29 9.27 117.18 9.13C117.07 8.99 117.01 8.81 117.01 8.58C117.01 8.40 117.04 8.23 117.12 8.08C117.21 7.92 117.32 7.77 117.47 7.64C117.61 7.52 117.80 7.43 118.01 7.36C118.22 7.29 118.44 7.25 118.69 7.25C119.06 7.25 119.42 7.31 119.80 7.43C119.81 7.60 119.83 7.77 119.84 7.92C119.85 8.08 119.85 8.19 119.87 8.27C119.88 8.36 119.88 8.43 119.88 8.44C119.90 8.67 119.99 8.78 120.19 8.78L120.53 8.78L120.53 7.11C119.80 6.86 119.18 6.75 118.68 6.75C118.33 6.75 118.01 6.80 117.73 6.90C117.45 7.00 117.19 7.14 117.00 7.31C116.80 7.48 116.65 7.69 116.54 7.91C116.42 8.13 116.38 8.37 116.38 8.62C116.38 8.92 116.44 9.16 116.55 9.35C116.66 9.55 116.80 9.70 116.98 9.84C117.17 9.98 117.36 10.09 117.60 10.18C117.82 10.26 118.06 10.35 118.31 10.42C118.55 10.49 118.79 10.57 119.03 10.64C119.25 10.71 119.46 10.81 119.64 10.92C119.83 11.03 119.98 11.16 120.09 11.31C120.20 11.47 120.26 11.65 120.26 11.89C120.26 12.10 120.22 12.29 120.15 12.49C120.06 12.68 119.95 12.84 119.80 12.98C119.64 13.12 119.46 13.23 119.24 13.31C119.01 13.40 118.76 13.44 118.47 13.44C117.94 13.44 117.49 13.37 117.11 13.22C117.10 13.03 117.08 12.87 117.07 12.71C117.05 12.56 117.05 12.43 117.04 12.35C117.03 12.26 117.03 12.19 117.03 12.18C117.01 11.96 116.91 11.84 116.72 11.84L116.38 11.84L116.38 13.54C117.05 13.79 117.74 13.93 118.44 13.93C118.83 13.93 119.17 13.87 119.48 13.76C119.78 13.65 120.04 13.50 120.25 13.30C120.46 13.10 120.61 12.89 120.72 12.63C120.83 12.36 120.89 12.08 120.89 11.77C120.89 11.49 120.82 11.26 120.71 11.06ZM146.75 13.29L146.68 13.29L146.57 13.29C146.52 13.29 146.45 13.27 146.36 13.27C146.26 13.27 146.15 13.26 146.02 13.26L146.02 9.37C146.02 8.96 145.96 8.60 145.87 8.27C145.77 7.95 145.63 7.67 145.43 7.45C145.24 7.22 145.00 7.06 144.70 6.93C144.41 6.80 144.07 6.75 143.70 6.75C143.18 6.75 142.70 6.87 142.28 7.11C141.86 7.36 141.50 7.67 141.18 8.08L141.12 7.03C141.11 6.92 141.04 6.86 140.91 6.86L140.55 6.86L139.54 6.86L139.54 7.13C139.54 7.28 139.62 7.36 139.80 7.38L139.89 7.38C139.92 7.38 139.94 7.39 139.99 7.39L140.20 7.39C140.29 7.39 140.42 7.41 140.55 7.41L140.55 13.26C140.38 13.26 140.24 13.29 140.13 13.29L139.90 13.29L139.80 13.29C139.62 13.30 139.54 13.38 139.54 13.54L139.54 13.82L140.55 13.82L141.20 13.82L142.21 13.82L142.21 13.54C142.21 13.38 142.13 13.30 141.95 13.29L141.86 13.29L141.76 13.29C141.72 13.29 141.65 13.27 141.55 13.27C141.46 13.27 141.33 13.26 141.20 13.26L141.20 8.60C141.51 8.19 141.86 7.87 142.25 7.63C142.65 7.39 143.07 7.28 143.53 7.28C144.14 7.28 144.61 7.46 144.90 7.83C145.19 8.20 145.35 8.71 145.35 9.37L145.35 13.82L146.02 13.82L147.03 13.82L147.03 13.54C147.03 13.38 146.93 13.30 146.75 13.29ZM158.34 6.73C157.84 6.73 157.39 6.83 157.00 7.00C156.60 7.17 156.27 7.41 155.99 7.71C155.71 8.02 155.51 8.40 155.37 8.85C155.23 9.30 155.15 9.79 155.15 10.33C155.15 10.88 155.23 11.37 155.37 11.80C155.51 12.24 155.71 12.63 155.99 12.94C156.27 13.24 156.60 13.48 157.00 13.65C157.39 13.82 157.84 13.90 158.34 13.90C158.84 13.90 159.28 13.82 159.67 13.65C160.06 13.48 160.40 13.24 160.66 12.94C160.93 12.63 161.15 12.24 161.29 11.80C161.43 11.37 161.50 10.88 161.50 10.33C161.50 9.79 161.43 9.30 161.29 8.85C161.15 8.40 160.93 8.02 160.66 7.71C160.40 7.41 160.06 7.17 159.67 7.00C159.28 6.83 158.84 6.73 158.34 6.73ZM158.34 13.38C157.92 13.38 157.56 13.31 157.25 13.17C156.94 13.03 156.67 12.82 156.46 12.56C156.25 12.29 156.11 11.97 156.00 11.59C155.89 11.21 155.85 10.79 155.85 10.33C155.85 9.87 155.89 9.45 156.00 9.07C156.11 8.69 156.25 8.37 156.46 8.11C156.67 7.84 156.94 7.62 157.25 7.48C157.56 7.34 157.92 7.27 158.34 7.27C158.76 7.27 159.11 7.34 159.42 7.48C159.73 7.62 159.99 7.84 160.20 8.11C160.41 8.37 160.57 8.69 160.66 9.07C160.76 9.45 160.82 9.87 160.82 10.33C160.82 10.79 160.76 11.21 160.66 11.59C160.57 11.97 160.41 12.29 160.20 12.56C159.99 12.82 159.73 13.03 159.42 13.17C159.11 13.31 158.76 13.38 158.34 13.38ZM184.63 6.80C184.45 6.76 184.27 6.73 184.06 6.73C183.51 6.73 183.05 6.89 182.67 7.21C182.29 7.53 182.00 7.98 181.78 8.54L181.72 7.07C181.72 6.99 181.69 6.93 181.66 6.90C181.64 6.87 181.58 6.86 181.50 6.86L181.15 6.86L181.15 6.86L180.14 6.86L180.14 7.13C180.14 7.31 180.24 7.36 180.40 7.38C180.49 7.38 180.57 7.38 181.15 7.41L181.15 13.26C180.57 13.29 180.49 13.29 180.40 13.29C180.24 13.30 180.14 13.36 180.14 13.54L180.14 13.82L181.15 13.82L181.80 13.82L181.80 13.82L182.81 13.82L182.81 13.54C182.81 13.36 182.71 13.30 182.55 13.29C182.46 13.29 182.38 13.29 181.80 13.26L181.80 9.30C182.01 8.68 182.29 8.20 182.63 7.88C182.97 7.56 183.40 7.39 183.93 7.39C184.07 7.39 184.20 7.41 184.31 7.42C184.42 7.43 184.53 7.45 184.60 7.48C184.69 7.50 184.73 7.53 184.79 7.55C184.84 7.56 184.88 7.57 184.91 7.57C185.00 7.57 185.04 7.53 185.05 7.46L185.14 7.00C184.98 6.92 184.81 6.85 184.63 6.80ZM196.08 6.73C195.59 6.73 195.15 6.83 194.75 7.00C194.36 7.17 194.04 7.41 193.77 7.71C193.51 8.02 193.30 8.39 193.16 8.81C193.02 9.23 192.93 9.69 192.93 10.19C192.93 10.78 193.02 11.31 193.17 11.77C193.33 12.24 193.54 12.61 193.82 12.94C194.10 13.26 194.43 13.50 194.82 13.66C195.22 13.83 195.65 13.90 196.13 13.90C196.39 13.90 196.66 13.89 196.91 13.83C197.16 13.78 197.41 13.71 197.64 13.62C197.86 13.54 198.07 13.44 198.25 13.31C198.44 13.19 198.59 13.06 198.70 12.92L198.52 12.70C198.49 12.66 198.44 12.63 198.38 12.63C198.34 12.63 198.25 12.66 198.16 12.74C198.06 12.82 197.92 12.91 197.74 13.01C197.57 13.10 197.34 13.17 197.09 13.26C196.84 13.34 196.53 13.38 196.18 13.38C195.79 13.38 195.44 13.31 195.12 13.17C194.80 13.03 194.53 12.84 194.31 12.57C194.08 12.31 193.91 11.97 193.79 11.58C193.66 11.19 193.61 10.71 193.61 10.19L193.61 10.07L198.63 10.07C198.70 10.07 198.74 10.05 198.77 10.01C198.80 9.97 198.83 9.90 198.83 9.80C198.83 9.31 198.76 8.88 198.62 8.50C198.48 8.12 198.30 7.78 198.04 7.53C197.81 7.28 197.51 7.08 197.18 6.94C196.84 6.80 196.48 6.73 196.08 6.73ZM196.10 7.24C196.42 7.24 196.70 7.29 196.97 7.41C197.23 7.52 197.46 7.67 197.64 7.88C197.82 8.09 197.97 8.33 198.07 8.62C198.17 8.92 198.23 9.25 198.23 9.63L193.63 9.63C193.68 9.27 193.76 8.93 193.89 8.64C194.01 8.34 194.18 8.09 194.39 7.88C194.60 7.67 194.85 7.52 195.13 7.41C195.41 7.29 195.73 7.24 196.10 7.24ZM211.61 11.06C211.50 10.86 211.36 10.71 211.18 10.57C210.99 10.43 210.78 10.32 210.56 10.23C210.34 10.15 210.08 10.05 209.85 9.98C209.61 9.91 209.37 9.83 209.13 9.76C208.91 9.69 208.70 9.59 208.52 9.49C208.33 9.39 208.19 9.27 208.08 9.13C207.97 8.99 207.91 8.81 207.91 8.58C207.91 8.40 207.94 8.23 208.03 8.08C208.11 7.92 208.22 7.77 208.38 7.64C208.52 7.52 208.70 7.43 208.91 7.36C209.12 7.29 209.34 7.25 209.59 7.25C209.96 7.25 210.32 7.31 210.70 7.43C210.71 7.60 210.73 7.77 210.74 7.92C210.76 8.08 210.76 8.19 210.77 8.27C210.78 8.36 210.78 8.43 210.78 8.44C210.80 8.67 210.90 8.78 211.09 8.78L211.43 8.78L211.43 7.11C210.70 6.86 210.08 6.75 209.58 6.75C209.23 6.75 208.91 6.80 208.63 6.90C208.35 7.00 208.10 7.14 207.90 7.31C207.70 7.48 207.55 7.69 207.44 7.91C207.33 8.13 207.28 8.37 207.28 8.62C207.28 8.92 207.34 9.16 207.45 9.35C207.56 9.55 207.70 9.70 207.89 9.84C208.07 9.98 208.26 10.09 208.50 10.18C208.73 10.26 208.96 10.35 209.22 10.42C209.45 10.49 209.69 10.57 209.93 10.64C210.15 10.71 210.36 10.81 210.55 10.92C210.73 11.03 210.88 11.16 210.99 11.31C211.11 11.47 211.16 11.65 211.16 11.89C211.16 12.10 211.12 12.29 211.05 12.49C210.97 12.68 210.85 12.84 210.70 12.98C210.55 13.12 210.36 13.23 210.14 13.31C209.92 13.40 209.66 13.44 209.37 13.44C208.84 13.44 208.39 13.37 208.01 13.22C208.00 13.03 207.98 12.87 207.97 12.71C207.96 12.56 207.96 12.43 207.94 12.35C207.93 12.26 207.93 12.19 207.93 12.18C207.91 11.96 207.82 11.84 207.62 11.84L207.28 11.84L207.28 13.54C207.96 13.79 208.64 13.93 209.34 13.93C209.73 13.93 210.07 13.87 210.38 13.76C210.69 13.65 210.94 13.50 211.15 13.30C211.36 13.10 211.51 12.89 211.62 12.63C211.74 12.36 211.79 12.08 211.79 11.77C211.79 11.49 211.72 11.26 211.61 11.06ZM225.75 7.63C225.27 7.04 224.60 6.73 223.75 6.73C223.23 6.73 222.78 6.86 222.36 7.11C221.96 7.36 221.59 7.69 221.28 8.11L221.21 7.03C221.21 6.96 221.20 6.92 221.16 6.89C221.12 6.86 221.06 6.86 221.00 6.86L220.64 6.86L219.63 6.86L219.63 7.13C219.63 7.28 219.73 7.36 219.91 7.38L219.98 7.38C220.01 7.38 220.05 7.39 220.09 7.39L220.30 7.39C220.40 7.39 220.51 7.41 220.64 7.41L220.64 15.72C220.49 15.72 220.35 15.75 220.23 15.75L220.00 15.75L219.91 15.75C219.73 15.76 219.63 15.85 219.63 16.00L219.63 16.28L220.64 16.28L221.31 16.28L222.32 16.28L222.32 16.00C222.32 15.85 222.22 15.76 222.04 15.75L221.97 15.75L221.86 15.75C221.82 15.75 221.75 15.74 221.65 15.74C221.55 15.74 221.44 15.72 221.31 15.72L221.31 12.88C221.56 13.22 221.86 13.48 222.21 13.65C222.56 13.82 222.96 13.90 223.44 13.90C223.93 13.90 224.35 13.80 224.73 13.62C225.11 13.44 225.43 13.19 225.68 12.87C225.93 12.54 226.14 12.15 226.27 11.72C226.41 11.28 226.46 10.79 226.46 10.29C226.46 9.10 226.23 8.22 225.75 7.63ZM225.62 11.55C225.53 11.93 225.36 12.25 225.15 12.53C224.94 12.81 224.69 13.01 224.38 13.16C224.07 13.31 223.71 13.38 223.30 13.38C222.88 13.38 222.52 13.30 222.19 13.13C221.87 12.96 221.58 12.70 221.31 12.29L221.31 8.64C221.61 8.20 221.93 7.87 222.31 7.63C222.68 7.39 223.10 7.28 223.57 7.28C224.28 7.28 224.83 7.52 225.20 8.01C225.58 8.50 225.78 9.25 225.78 10.29C225.78 10.75 225.74 11.17 225.62 11.55ZM237.73 6.73C237.23 6.73 236.78 6.83 236.39 7.00C236.00 7.17 235.66 7.41 235.38 7.71C235.10 8.02 234.91 8.40 234.77 8.85C234.63 9.30 234.54 9.79 234.54 10.33C234.54 10.88 234.63 11.37 234.77 11.80C234.91 12.24 235.10 12.63 235.38 12.94C235.66 13.24 236.00 13.48 236.39 13.65C236.78 13.82 237.23 13.90 237.73 13.90C238.24 13.90 238.67 13.82 239.06 13.65C239.46 13.48 239.79 13.24 240.06 12.94C240.32 12.63 240.55 12.24 240.69 11.80C240.83 11.37 240.90 10.88 240.90 10.33C240.90 9.79 240.83 9.30 240.69 8.85C240.55 8.40 240.32 8.02 240.06 7.71C239.79 7.41 239.46 7.17 239.06 7.00C238.67 6.83 238.24 6.73 237.73 6.73ZM237.73 13.38C237.31 13.38 236.95 13.31 236.64 13.17C236.33 13.03 236.07 12.82 235.86 12.56C235.65 12.29 235.51 11.97 235.40 11.59C235.28 11.21 235.24 10.79 235.24 10.33C235.24 9.87 235.28 9.45 235.40 9.07C235.51 8.69 235.65 8.37 235.86 8.11C236.07 7.84 236.33 7.62 236.64 7.48C236.95 7.34 237.31 7.27 237.73 7.27C238.15 7.27 238.50 7.34 238.81 7.48C239.12 7.62 239.39 7.84 239.60 8.11C239.81 8.37 239.96 8.69 240.06 9.07C240.16 9.45 240.21 9.87 240.21 10.33C240.21 10.79 240.16 11.21 240.06 11.59C239.96 11.97 239.81 12.29 239.60 12.56C239.39 12.82 239.12 13.03 238.81 13.17C238.50 13.31 238.15 13.38 237.73 13.38ZM256.37 13.29L256.30 13.29L256.19 13.29C256.14 13.29 256.07 13.27 255.98 13.27C255.88 13.27 255.77 13.26 255.64 13.26L255.64 9.37C255.64 8.96 255.58 8.60 255.49 8.27C255.39 7.95 255.25 7.67 255.05 7.45C254.86 7.22 254.62 7.06 254.32 6.93C254.03 6.80 253.69 6.75 253.32 6.75C252.80 6.75 252.32 6.87 251.90 7.11C251.48 7.36 251.12 7.67 250.80 8.08L250.74 7.03C250.73 6.92 250.66 6.86 250.53 6.86L250.17 6.86L249.16 6.86L249.16 7.13C249.16 7.28 249.24 7.36 249.42 7.38L249.51 7.38C249.54 7.38 249.56 7.39 249.61 7.39L249.82 7.39C249.91 7.39 250.04 7.41 250.17 7.41L250.17 13.26C250.00 13.26 249.86 13.29 249.75 13.29L249.52 13.29L249.42 13.29C249.24 13.30 249.16 13.38 249.16 13.54L249.16 13.82L250.17 13.82L250.82 13.82L251.83 13.82L251.83 13.54C251.83 13.38 251.75 13.30 251.57 13.29L251.48 13.29L251.38 13.29C251.34 13.29 251.27 13.27 251.17 13.27C251.08 13.27 250.95 13.26 250.82 13.26L250.82 8.60C251.13 8.19 251.48 7.87 251.87 7.63C252.27 7.39 252.69 7.28 253.15 7.28C253.76 7.28 254.23 7.46 254.52 7.83C254.81 8.20 254.97 8.71 254.97 9.37L254.97 13.82L255.64 13.82L256.65 13.82L256.65 13.54C256.65 13.38 256.55 13.30 256.37 13.29ZM269.49 11.06C269.37 10.86 269.23 10.71 269.05 10.57C268.87 10.43 268.66 10.32 268.44 10.23C268.21 10.15 267.96 10.05 267.72 9.98C267.48 9.91 267.25 9.83 267.01 9.76C266.78 9.69 266.57 9.59 266.39 9.49C266.21 9.39 266.07 9.27 265.96 9.13C265.85 8.99 265.79 8.81 265.79 8.58C265.79 8.40 265.82 8.23 265.90 8.08C265.99 7.92 266.10 7.77 266.25 7.64C266.39 7.52 266.57 7.43 266.78 7.36C266.99 7.29 267.22 7.25 267.47 7.25C267.83 7.25 268.20 7.31 268.58 7.43C268.59 7.60 268.60 7.77 268.62 7.92C268.63 8.08 268.63 8.19 268.65 8.27C268.66 8.36 268.66 8.43 268.66 8.44C268.67 8.67 268.77 8.78 268.97 8.78L269.30 8.78L269.30 7.11C268.58 6.86 267.96 6.75 267.46 6.75C267.11 6.75 266.78 6.80 266.50 6.90C266.22 7.00 265.97 7.14 265.78 7.31C265.58 7.48 265.43 7.69 265.31 7.91C265.20 8.13 265.16 8.37 265.16 8.62C265.16 8.92 265.22 9.16 265.33 9.35C265.44 9.55 265.58 9.70 265.76 9.84C265.94 9.98 266.14 10.09 266.38 10.18C266.60 10.26 266.84 10.35 267.09 10.42C267.33 10.49 267.57 10.57 267.81 10.64C268.03 10.71 268.24 10.81 268.42 10.92C268.60 11.03 268.76 11.16 268.87 11.31C268.98 11.47 269.04 11.65 269.04 11.89C269.04 12.10 269.00 12.29 268.93 12.49C268.84 12.68 268.73 12.84 268.58 12.98C268.42 13.12 268.24 13.23 268.02 13.31C267.79 13.40 267.54 13.44 267.25 13.44C266.71 13.44 266.27 13.37 265.89 13.22C265.87 13.03 265.86 12.87 265.85 12.71C265.83 12.56 265.83 12.43 265.82 12.35C265.80 12.26 265.80 12.19 265.80 12.18C265.79 11.96 265.69 11.84 265.50 11.84L265.16 11.84L265.16 13.54C265.83 13.79 266.52 13.93 267.22 13.93C267.61 13.93 267.95 13.87 268.25 13.76C268.56 13.65 268.81 13.50 269.02 13.30C269.23 13.10 269.39 12.89 269.50 12.63C269.61 12.36 269.67 12.08 269.67 11.77C269.67 11.49 269.60 11.26 269.49 11.06ZM280.90 6.73C280.41 6.73 279.96 6.83 279.57 7.00C279.17 7.17 278.85 7.41 278.59 7.71C278.32 8.02 278.11 8.39 277.97 8.81C277.83 9.23 277.75 9.69 277.75 10.19C277.75 10.78 277.83 11.31 277.98 11.77C278.14 12.24 278.35 12.61 278.63 12.94C278.91 13.26 279.24 13.50 279.64 13.66C280.03 13.83 280.46 13.90 280.94 13.90C281.20 13.90 281.47 13.89 281.72 13.83C281.97 13.78 282.23 13.71 282.45 13.62C282.67 13.54 282.88 13.44 283.07 13.31C283.25 13.19 283.40 13.06 283.51 12.92L283.33 12.70C283.30 12.66 283.25 12.63 283.19 12.63C283.15 12.63 283.07 12.66 282.97 12.74C282.87 12.82 282.73 12.91 282.55 13.01C282.38 13.10 282.16 13.17 281.90 13.26C281.65 13.34 281.34 13.38 280.99 13.38C280.60 13.38 280.25 13.31 279.93 13.17C279.61 13.03 279.34 12.84 279.12 12.57C278.89 12.31 278.73 11.97 278.60 11.58C278.47 11.19 278.42 10.71 278.42 10.19L278.42 10.07L283.44 10.07C283.51 10.07 283.56 10.05 283.58 10.01C283.61 9.97 283.64 9.90 283.64 9.80C283.64 9.31 283.57 8.88 283.43 8.50C283.29 8.12 283.11 7.78 282.86 7.53C282.62 7.28 282.32 7.08 281.99 6.94C281.65 6.80 281.29 6.73 280.90 6.73ZM280.91 7.24C281.23 7.24 281.51 7.29 281.78 7.41C282.04 7.52 282.27 7.67 282.45 7.88C282.63 8.09 282.79 8.33 282.88 8.62C282.98 8.92 283.04 9.25 283.04 9.63L278.45 9.63C278.49 9.27 278.57 8.93 278.70 8.64C278.82 8.34 278.99 8.09 279.20 7.88C279.41 7.67 279.66 7.52 279.94 7.41C280.22 7.29 280.55 7.24 280.91 7.24ZM304.12 5.32C304.21 5.08 304.30 4.90 304.44 4.75C304.58 4.59 304.75 4.48 304.95 4.41C305.14 4.34 305.35 4.31 305.58 4.31C305.72 4.31 305.84 4.33 305.94 4.34C306.04 4.35 306.11 4.35 306.17 4.35C306.25 4.35 306.31 4.33 306.31 4.26L306.32 3.93C306.21 3.89 306.07 3.85 305.93 3.82C305.77 3.79 305.63 3.79 305.49 3.79C305.17 3.79 304.89 3.84 304.63 3.93C304.36 4.03 304.14 4.20 303.95 4.40C303.77 4.59 303.62 4.84 303.52 5.14C303.42 5.43 303.37 5.80 303.37 6.19L303.37 7.07L302.18 7.07L302.18 7.35C302.18 7.46 302.23 7.50 302.37 7.52L303.37 7.59L303.37 13.26C303.20 13.26 303.06 13.27 302.92 13.27C302.78 13.27 302.68 13.29 302.61 13.29L302.48 13.29C302.30 13.30 302.20 13.38 302.20 13.54L302.20 13.82L303.38 13.82L304.02 13.82L305.20 13.82L305.20 13.54C305.20 13.38 305.10 13.30 304.92 13.29L304.79 13.29C304.72 13.29 304.63 13.27 304.49 13.27C304.35 13.27 304.19 13.26 304.02 13.26L304.02 7.57L306.26 7.57L306.26 7.07L304.01 7.07L304.01 6.22C304.01 5.87 304.04 5.56 304.12 5.32ZM317.42 6.73C316.92 6.73 316.47 6.83 316.08 7.00C315.69 7.17 315.35 7.41 315.07 7.71C314.79 8.02 314.59 8.40 314.45 8.85C314.31 9.30 314.23 9.79 314.23 10.33C314.23 10.88 314.31 11.37 314.45 11.80C314.59 12.24 314.79 12.63 315.07 12.94C315.35 13.24 315.69 13.48 316.08 13.65C316.47 13.82 316.92 13.90 317.42 13.90C317.93 13.90 318.36 13.82 318.75 13.65C319.14 13.48 319.48 13.24 319.75 12.94C320.01 12.63 320.24 12.24 320.38 11.80C320.52 11.37 320.59 10.88 320.59 10.33C320.59 9.79 320.52 9.30 320.38 8.85C320.24 8.40 320.01 8.02 319.75 7.71C319.48 7.41 319.14 7.17 318.75 7.00C318.36 6.83 317.93 6.73 317.42 6.73ZM317.42 13.38C317.00 13.38 316.64 13.31 316.33 13.17C316.02 13.03 315.76 12.82 315.55 12.56C315.34 12.29 315.20 11.97 315.08 11.59C314.97 11.21 314.93 10.79 314.93 10.33C314.93 9.87 314.97 9.45 315.08 9.07C315.20 8.69 315.34 8.37 315.55 8.11C315.76 7.84 316.02 7.62 316.33 7.48C316.64 7.34 317.00 7.27 317.42 7.27C317.84 7.27 318.19 7.34 318.50 7.48C318.81 7.62 319.07 7.84 319.28 8.11C319.49 8.37 319.65 8.69 319.75 9.07C319.84 9.45 319.90 9.87 319.90 10.33C319.90 10.79 319.84 11.21 319.75 11.59C319.65 11.97 319.49 12.29 319.28 12.56C319.07 12.82 318.81 13.03 318.50 13.17C318.19 13.31 317.84 13.38 317.42 13.38ZM333.34 6.80C333.16 6.76 332.98 6.73 332.77 6.73C332.22 6.73 331.76 6.89 331.38 7.21C331.00 7.53 330.71 7.98 330.48 8.54L330.43 7.07C330.43 6.99 330.40 6.93 330.37 6.90C330.34 6.87 330.29 6.86 330.20 6.86L329.85 6.86L329.85 6.86L328.85 6.86L328.85 7.13C328.85 7.31 328.94 7.36 329.11 7.38C329.20 7.38 329.28 7.38 329.85 7.41L329.85 13.26C329.28 13.29 329.20 13.29 329.11 13.29C328.94 13.30 328.85 13.36 328.85 13.54L328.85 13.82L329.85 13.82L330.51 13.82L330.51 13.82L331.52 13.82L331.52 13.54C331.52 13.36 331.42 13.30 331.25 13.29C331.17 13.29 331.09 13.29 330.51 13.26L330.51 9.30C330.72 8.68 331.00 8.20 331.34 7.88C331.67 7.56 332.11 7.39 332.64 7.39C332.78 7.39 332.91 7.41 333.02 7.42C333.13 7.43 333.24 7.45 333.31 7.48C333.40 7.50 333.44 7.53 333.49 7.55C333.55 7.56 333.59 7.57 333.62 7.57C333.70 7.57 333.75 7.53 333.76 7.46L333.84 7.00C333.69 6.92 333.52 6.85 333.34 6.80ZM354.51 13.93C354.80 13.93 355.08 13.86 355.36 13.75C355.63 13.64 355.85 13.48 356.03 13.29L355.85 12.98C355.81 12.94 355.78 12.92 355.74 12.92C355.71 12.92 355.66 12.94 355.60 12.99C355.54 13.05 355.47 13.09 355.39 13.15C355.31 13.20 355.19 13.26 355.07 13.31C354.94 13.37 354.82 13.38 354.65 13.38C354.51 13.38 354.37 13.36 354.26 13.31C354.14 13.27 354.05 13.20 353.96 13.12C353.88 13.03 353.81 12.92 353.75 12.78C353.70 12.64 353.68 12.49 353.68 12.29L353.68 7.57L355.88 7.57L355.88 7.07L353.68 7.07L353.68 4.41L353.36 4.41C353.30 4.41 353.28 4.44 353.25 4.47C353.22 4.49 353.19 4.54 353.19 4.58L353.02 7.07L351.83 7.15L351.83 7.41C351.83 7.46 351.85 7.49 351.88 7.52C351.90 7.55 351.96 7.57 352.02 7.57L353.01 7.57L353.01 12.33C353.01 12.88 353.14 13.27 353.40 13.54C353.67 13.80 354.03 13.93 354.51 13.93ZM371.48 13.29L371.39 13.29L371.29 13.29C371.25 13.29 371.18 13.27 371.08 13.27C370.99 13.27 370.86 13.26 370.73 13.26L370.73 9.37C370.73 8.96 370.69 8.60 370.59 8.27C370.50 7.95 370.36 7.67 370.16 7.45C369.96 7.22 369.73 7.06 369.43 6.93C369.14 6.80 368.80 6.75 368.42 6.75C367.91 6.75 367.44 6.86 367.02 7.10C366.62 7.34 366.25 7.66 365.93 8.05L365.93 3.64L365.26 3.64L364.25 3.64L364.25 3.91C364.25 4.06 364.35 4.14 364.53 4.16L364.60 4.16C364.63 4.16 364.67 4.17 364.71 4.17L364.92 4.17C365.02 4.17 365.13 4.19 365.26 4.19L365.26 13.26C365.11 13.26 364.97 13.29 364.85 13.29L364.62 13.29L364.53 13.29C364.35 13.30 364.25 13.38 364.25 13.54L364.25 13.82L365.26 13.82L365.93 13.82L366.94 13.82L366.94 13.54C366.94 13.38 366.84 13.30 366.66 13.29L366.59 13.29L366.48 13.29C366.44 13.29 366.37 13.27 366.27 13.27C366.17 13.27 366.06 13.26 365.93 13.26L365.93 8.60C366.24 8.19 366.59 7.87 366.98 7.63C367.37 7.39 367.79 7.28 368.26 7.28C368.87 7.28 369.33 7.46 369.63 7.83C369.92 8.20 370.08 8.71 370.08 9.37L370.08 13.82L370.73 13.82L371.74 13.82L371.74 13.54C371.74 13.38 371.66 13.30 371.48 13.29ZM385.60 13.29L385.50 13.29L385.28 13.29C385.18 13.29 385.07 13.27 384.96 13.27L384.96 9.28C384.96 8.89 384.92 8.55 384.82 8.23C384.72 7.91 384.58 7.64 384.40 7.42C384.22 7.20 383.98 7.03 383.70 6.92C383.42 6.79 383.10 6.73 382.72 6.73C382.21 6.73 381.77 6.83 381.36 7.01C380.95 7.20 380.58 7.48 380.21 7.84L380.32 8.05C380.37 8.13 380.44 8.18 380.53 8.18C380.60 8.18 380.70 8.12 380.80 8.02C380.90 7.92 381.04 7.84 381.21 7.73C381.37 7.62 381.56 7.52 381.79 7.42C382.03 7.32 382.31 7.28 382.65 7.28C383.19 7.28 383.61 7.45 383.89 7.80C384.17 8.15 384.30 8.64 384.30 9.28L384.30 10.01C383.52 10.02 382.84 10.09 382.28 10.21C381.72 10.32 381.26 10.47 380.90 10.65C380.53 10.84 380.28 11.06 380.11 11.31C379.95 11.56 379.86 11.83 379.86 12.12C379.86 12.45 379.92 12.73 380.02 12.95C380.13 13.17 380.27 13.36 380.44 13.50C380.60 13.64 380.81 13.75 381.04 13.82C381.26 13.89 381.49 13.93 381.72 13.93C382.00 13.93 382.27 13.90 382.51 13.85C382.75 13.79 382.96 13.71 383.17 13.61C383.38 13.51 383.57 13.38 383.77 13.23C383.95 13.08 384.13 12.91 384.33 12.73L384.43 13.62C384.45 13.75 384.55 13.82 384.69 13.82L384.71 13.82L384.96 13.82L385.88 13.82L385.88 13.54C385.88 13.38 385.78 13.30 385.60 13.29ZM384.30 12.26C384.13 12.43 383.98 12.60 383.81 12.74C383.64 12.88 383.46 13.01 383.26 13.12C383.07 13.23 382.86 13.30 382.63 13.36C382.41 13.41 382.16 13.44 381.89 13.44C381.71 13.44 381.53 13.43 381.36 13.37C381.19 13.31 381.05 13.24 380.93 13.13C380.80 13.02 380.69 12.88 380.62 12.71C380.53 12.54 380.51 12.35 380.51 12.11C380.51 11.86 380.58 11.63 380.73 11.44C380.88 11.24 381.11 11.09 381.42 10.95C381.72 10.81 382.12 10.70 382.59 10.61C383.07 10.53 383.64 10.47 384.30 10.46ZM396.23 13.93C396.52 13.93 396.80 13.86 397.08 13.75C397.35 13.64 397.57 13.48 397.75 13.29L397.57 12.98C397.53 12.94 397.50 12.92 397.46 12.92C397.43 12.92 397.38 12.94 397.32 12.99C397.26 13.05 397.19 13.09 397.11 13.15C397.03 13.20 396.91 13.26 396.79 13.31C396.66 13.37 396.54 13.38 396.37 13.38C396.23 13.38 396.09 13.36 395.98 13.31C395.86 13.27 395.77 13.20 395.68 13.12C395.60 13.03 395.53 12.92 395.47 12.78C395.42 12.64 395.40 12.49 395.40 12.29L395.40 7.57L397.60 7.57L397.60 7.07L395.40 7.07L395.40 4.41L395.08 4.41C395.02 4.41 395.00 4.44 394.97 4.47C394.94 4.49 394.91 4.54 394.91 4.58L394.74 7.07L393.55 7.15L393.55 7.41C393.55 7.46 393.57 7.49 393.60 7.52C393.62 7.55 393.68 7.57 393.74 7.57L394.73 7.57L394.73 12.33C394.73 12.88 394.86 13.27 395.12 13.54C395.39 13.80 395.75 13.93 396.23 13.93ZM423.16 13.29L423.09 13.29L422.98 13.29C422.94 13.29 422.87 13.27 422.77 13.27C422.67 13.27 422.56 13.26 422.44 13.26L422.44 6.85L421.76 6.86L420.76 6.86L420.76 7.13C420.76 7.28 420.85 7.36 421.04 7.38L421.11 7.38C421.13 7.38 421.18 7.39 421.22 7.39L421.43 7.39C421.53 7.39 421.64 7.41 421.76 7.41L421.76 12.08C421.46 12.49 421.09 12.81 420.70 13.05C420.31 13.27 419.89 13.40 419.44 13.40C418.82 13.40 418.36 13.20 418.07 12.84C417.77 12.46 417.62 11.96 417.62 11.30L417.62 6.85L416.95 6.86L415.94 6.86L415.94 7.13C415.94 7.28 416.04 7.36 416.22 7.38L416.29 7.38C416.32 7.38 416.36 7.39 416.40 7.39L416.61 7.39C416.71 7.39 416.82 7.41 416.95 7.41L416.95 11.30C416.95 11.70 417.00 12.07 417.10 12.39C417.20 12.71 417.34 12.99 417.54 13.22C417.73 13.44 417.96 13.62 418.25 13.75C418.54 13.87 418.88 13.93 419.27 13.93C419.79 13.93 420.27 13.80 420.69 13.57C421.11 13.33 421.48 13.01 421.81 12.60L421.86 13.64C421.86 13.76 421.95 13.82 422.07 13.82L422.44 13.82L423.44 13.82L423.44 13.54C423.44 13.38 423.35 13.30 423.16 13.29ZM436.28 11.06C436.17 10.86 436.03 10.71 435.85 10.57C435.67 10.43 435.46 10.32 435.23 10.23C435.01 10.15 434.76 10.05 434.52 9.98C434.28 9.91 434.04 9.83 433.80 9.76C433.58 9.69 433.37 9.59 433.19 9.49C433.01 9.39 432.87 9.27 432.75 9.13C432.64 8.99 432.59 8.81 432.59 8.58C432.59 8.40 432.61 8.23 432.70 8.08C432.78 7.92 432.89 7.77 433.05 7.64C433.19 7.52 433.37 7.43 433.58 7.36C433.79 7.29 434.01 7.25 434.27 7.25C434.63 7.25 434.99 7.31 435.37 7.43C435.39 7.60 435.40 7.77 435.41 7.92C435.43 8.08 435.43 8.19 435.44 8.27C435.46 8.36 435.46 8.43 435.46 8.44C435.47 8.67 435.57 8.78 435.76 8.78L436.10 8.78L436.10 7.11C435.37 6.86 434.76 6.75 434.25 6.75C433.90 6.75 433.58 6.80 433.30 6.90C433.02 7.00 432.77 7.14 432.57 7.31C432.38 7.48 432.22 7.69 432.11 7.91C432.00 8.13 431.96 8.37 431.96 8.62C431.96 8.92 432.01 9.16 432.12 9.35C432.24 9.55 432.38 9.70 432.56 9.84C432.74 9.98 432.94 10.09 433.17 10.18C433.40 10.26 433.64 10.35 433.89 10.42C434.13 10.49 434.36 10.57 434.60 10.64C434.83 10.71 435.04 10.81 435.22 10.92C435.40 11.03 435.55 11.16 435.67 11.31C435.78 11.47 435.83 11.65 435.83 11.89C435.83 12.10 435.79 12.29 435.72 12.49C435.64 12.68 435.53 12.84 435.37 12.98C435.22 13.12 435.04 13.23 434.81 13.31C434.59 13.40 434.34 13.44 434.04 13.44C433.51 13.44 433.06 13.37 432.68 13.22C432.67 13.03 432.66 12.87 432.64 12.71C432.63 12.56 432.63 12.43 432.61 12.35C432.60 12.26 432.60 12.19 432.60 12.18C432.59 11.96 432.49 11.84 432.29 11.84L431.96 11.84L431.96 13.54C432.63 13.79 433.31 13.93 434.01 13.93C434.41 13.93 434.74 13.87 435.05 13.76C435.36 13.65 435.61 13.50 435.82 13.30C436.03 13.10 436.18 12.89 436.30 12.63C436.41 12.36 436.46 12.08 436.46 11.77C436.46 11.49 436.39 11.26 436.28 11.06ZM447.69 6.73C447.20 6.73 446.75 6.83 446.36 7.00C445.97 7.17 445.65 7.41 445.38 7.71C445.12 8.02 444.91 8.39 444.77 8.81C444.63 9.23 444.54 9.69 444.54 10.19C444.54 10.78 444.63 11.31 444.78 11.77C444.93 12.24 445.14 12.61 445.42 12.94C445.70 13.26 446.04 13.50 446.43 13.66C446.82 13.83 447.26 13.90 447.73 13.90C448.00 13.90 448.27 13.89 448.52 13.83C448.77 13.78 449.02 13.71 449.25 13.62C449.47 13.54 449.68 13.44 449.86 13.31C450.04 13.19 450.20 13.06 450.31 12.92L450.13 12.70C450.10 12.66 450.04 12.63 449.99 12.63C449.95 12.63 449.86 12.66 449.76 12.74C449.67 12.82 449.53 12.91 449.34 13.01C449.18 13.10 448.95 13.17 448.70 13.26C448.45 13.34 448.14 13.38 447.79 13.38C447.40 13.38 447.05 13.31 446.73 13.17C446.40 13.03 446.14 12.84 445.91 12.57C445.69 12.31 445.52 11.97 445.40 11.58C445.27 11.19 445.21 10.71 445.21 10.19L445.21 10.07L450.24 10.07C450.31 10.07 450.35 10.05 450.38 10.01C450.41 9.97 450.44 9.90 450.44 9.80C450.44 9.31 450.37 8.88 450.23 8.50C450.09 8.12 449.90 7.78 449.65 7.53C449.41 7.28 449.12 7.08 448.78 6.94C448.45 6.80 448.08 6.73 447.69 6.73ZM447.71 7.24C448.03 7.24 448.31 7.29 448.57 7.41C448.84 7.52 449.06 7.67 449.25 7.88C449.43 8.09 449.58 8.33 449.68 8.62C449.78 8.92 449.83 9.25 449.83 9.63L445.24 9.63C445.28 9.27 445.37 8.93 445.49 8.64C445.62 8.34 445.79 8.09 446.00 7.88C446.21 7.67 446.46 7.52 446.74 7.41C447.02 7.29 447.34 7.24 447.71 7.24ZM463.19 6.80C463.01 6.76 462.83 6.73 462.62 6.73C462.07 6.73 461.61 6.89 461.23 7.21C460.85 7.53 460.56 7.98 460.33 8.54L460.28 7.07C460.28 6.99 460.25 6.93 460.22 6.90C460.19 6.87 460.14 6.86 460.05 6.86L459.70 6.86L459.70 6.86L458.70 6.86L458.70 7.13C458.70 7.31 458.79 7.36 458.96 7.38C459.05 7.38 459.13 7.38 459.70 7.41L459.70 13.26C459.13 13.29 459.05 13.29 458.96 13.29C458.79 13.30 458.70 13.36 458.70 13.54L458.70 13.82L459.70 13.82L460.36 13.82L460.36 13.82L461.37 13.82L461.37 13.54C461.37 13.36 461.27 13.30 461.10 13.29C461.02 13.29 460.94 13.29 460.36 13.26L460.36 9.30C460.57 8.68 460.85 8.20 461.19 7.88C461.52 7.56 461.96 7.39 462.49 7.39C462.63 7.39 462.76 7.41 462.87 7.42C462.98 7.43 463.09 7.45 463.16 7.48C463.25 7.50 463.29 7.53 463.34 7.55C463.40 7.56 463.44 7.57 463.47 7.57C463.55 7.57 463.60 7.53 463.61 7.46L463.69 7.00C463.54 6.92 463.37 6.85 463.19 6.80ZM479.01 13.29L478.94 13.29L478.83 13.29C478.79 13.29 478.72 13.27 478.62 13.27C478.52 13.27 478.41 13.26 478.28 13.26L478.28 9.37C478.28 8.96 478.23 8.60 478.13 8.27C478.03 7.95 477.89 7.67 477.69 7.45C477.50 7.22 477.26 7.06 476.97 6.93C476.67 6.80 476.34 6.75 475.96 6.75C475.44 6.75 474.96 6.87 474.54 7.11C474.12 7.36 473.76 7.67 473.44 8.08L473.38 7.03C473.37 6.92 473.30 6.86 473.17 6.86L472.81 6.86L471.80 6.86L471.80 7.13C471.80 7.28 471.88 7.36 472.07 7.38L472.15 7.38C472.18 7.38 472.21 7.39 472.25 7.39L472.46 7.39C472.56 7.39 472.68 7.41 472.81 7.41L472.81 13.26C472.64 13.26 472.50 13.29 472.39 13.29L472.16 13.29L472.07 13.29C471.88 13.30 471.80 13.38 471.80 13.54L471.80 13.82L472.81 13.82L473.47 13.82L474.47 13.82L474.47 13.54C474.47 13.38 474.39 13.30 474.21 13.29L474.12 13.29L474.03 13.29C473.98 13.29 473.91 13.27 473.82 13.27C473.72 13.27 473.59 13.26 473.47 13.26L473.47 8.60C473.77 8.19 474.12 7.87 474.52 7.63C474.91 7.39 475.33 7.28 475.79 7.28C476.41 7.28 476.87 7.46 477.16 7.83C477.46 8.20 477.61 8.71 477.61 9.37L477.61 13.82L478.28 13.82L479.29 13.82L479.29 13.54C479.29 13.38 479.19 13.30 479.01 13.29ZM493.18 13.29L493.08 13.29L492.86 13.29C492.76 13.29 492.65 13.27 492.53 13.27L492.53 9.28C492.53 8.89 492.49 8.55 492.39 8.23C492.30 7.91 492.16 7.64 491.97 7.42C491.79 7.20 491.55 7.03 491.27 6.92C490.99 6.79 490.67 6.73 490.29 6.73C489.79 6.73 489.34 6.83 488.94 7.01C488.53 7.20 488.15 7.48 487.79 7.84L487.90 8.05C487.94 8.13 488.01 8.18 488.11 8.18C488.18 8.18 488.28 8.12 488.38 8.02C488.47 7.92 488.61 7.84 488.78 7.73C488.95 7.62 489.13 7.52 489.37 7.42C489.61 7.32 489.89 7.28 490.22 7.28C490.77 7.28 491.19 7.45 491.47 7.80C491.75 8.15 491.88 8.64 491.88 9.28L491.88 10.01C491.09 10.02 490.42 10.09 489.86 10.21C489.30 10.32 488.84 10.47 488.47 10.65C488.11 10.84 487.86 11.06 487.69 11.31C487.52 11.56 487.44 11.83 487.44 12.12C487.44 12.45 487.49 12.73 487.59 12.95C487.70 13.17 487.84 13.36 488.01 13.50C488.18 13.64 488.39 13.75 488.61 13.82C488.84 13.89 489.06 13.93 489.30 13.93C489.58 13.93 489.85 13.90 490.08 13.85C490.32 13.79 490.53 13.71 490.74 13.61C490.95 13.51 491.15 13.38 491.34 13.23C491.53 13.08 491.71 12.91 491.90 12.73L492.00 13.62C492.03 13.75 492.13 13.82 492.27 13.82L492.28 13.82L492.53 13.82L493.46 13.82L493.46 13.54C493.46 13.38 493.36 13.30 493.18 13.29ZM491.88 12.26C491.71 12.43 491.55 12.60 491.39 12.74C491.22 12.88 491.04 13.01 490.84 13.12C490.64 13.23 490.43 13.30 490.21 13.36C489.99 13.41 489.73 13.44 489.47 13.44C489.29 13.44 489.10 13.43 488.94 13.37C488.77 13.31 488.63 13.24 488.50 13.13C488.38 13.02 488.26 12.88 488.19 12.71C488.11 12.54 488.08 12.35 488.08 12.11C488.08 11.86 488.15 11.63 488.31 11.44C488.46 11.24 488.68 11.09 488.99 10.95C489.30 10.81 489.69 10.70 490.17 10.61C490.64 10.53 491.22 10.47 491.88 10.46ZM512.57 13.29L512.48 13.29L512.39 13.29C512.34 13.29 512.27 13.27 512.18 13.27C512.08 13.27 511.95 13.26 511.83 13.26L511.83 9.37C511.83 8.95 511.77 8.57 511.67 8.25C511.57 7.92 511.43 7.64 511.24 7.42C511.04 7.20 510.80 7.03 510.52 6.92C510.24 6.80 509.95 6.75 509.60 6.75C509.36 6.75 509.11 6.78 508.89 6.85C508.66 6.92 508.45 7.01 508.26 7.15C508.06 7.29 507.88 7.46 507.72 7.67C507.57 7.88 507.46 8.13 507.37 8.43C507.26 7.90 507.07 7.48 506.76 7.18C506.45 6.89 506.04 6.75 505.54 6.75C505.32 6.75 505.11 6.76 504.91 6.83C504.71 6.89 504.53 6.99 504.35 7.10C504.18 7.21 504.01 7.36 503.86 7.52C503.71 7.67 503.57 7.84 503.43 8.04L503.37 7.03C503.36 6.92 503.29 6.86 503.16 6.86L502.80 6.86L501.79 6.86L501.79 7.13C501.79 7.28 501.87 7.36 502.05 7.38L502.14 7.38C502.17 7.38 502.19 7.39 502.24 7.39L502.45 7.39C502.54 7.39 502.67 7.41 502.80 7.41L502.80 13.26C502.63 13.26 502.49 13.29 502.38 13.29L502.15 13.29L502.05 13.29C501.87 13.30 501.79 13.38 501.79 13.54L501.79 13.82L502.80 13.82L503.45 13.82L504.46 13.82L504.46 13.54C504.46 13.38 504.38 13.30 504.20 13.29L504.11 13.29L504.01 13.29C503.97 13.29 503.90 13.27 503.80 13.27C503.71 13.27 503.58 13.26 503.45 13.26L503.45 8.55C503.71 8.15 504.00 7.84 504.32 7.62C504.64 7.39 504.99 7.28 505.37 7.28C505.89 7.28 506.28 7.45 506.55 7.81C506.81 8.18 506.95 8.69 506.95 9.37L506.95 13.82L507.63 13.82L507.63 13.82L508.63 13.82L508.63 13.54C508.63 13.38 508.54 13.30 508.35 13.29L508.28 13.29L508.17 13.29C508.13 13.29 508.06 13.27 507.96 13.27C507.86 13.27 507.75 13.26 507.63 13.26L507.63 9.37C507.63 9.02 507.67 8.72 507.77 8.46C507.86 8.19 508.00 7.97 508.17 7.80C508.34 7.63 508.54 7.49 508.76 7.41C508.98 7.32 509.22 7.28 509.46 7.28C510.01 7.28 510.43 7.46 510.72 7.81C511.01 8.18 511.17 8.68 511.17 9.37L511.17 13.82L511.83 13.82L512.83 13.82L512.83 13.54C512.83 13.38 512.75 13.30 512.57 13.29ZM524.10 6.73C523.61 6.73 523.17 6.83 522.77 7.00C522.38 7.17 522.06 7.41 521.79 7.71C521.53 8.02 521.32 8.39 521.18 8.81C521.04 9.23 520.95 9.69 520.95 10.19C520.95 10.78 521.04 11.31 521.19 11.77C521.35 12.24 521.56 12.61 521.84 12.94C522.12 13.26 522.45 13.50 522.84 13.66C523.24 13.83 523.67 13.90 524.15 13.90C524.41 13.90 524.68 13.89 524.93 13.83C525.18 13.78 525.43 13.71 525.66 13.62C525.88 13.54 526.09 13.44 526.27 13.31C526.46 13.19 526.61 13.06 526.72 12.92L526.54 12.70C526.51 12.66 526.46 12.63 526.40 12.63C526.36 12.63 526.27 12.66 526.18 12.74C526.08 12.82 525.94 12.91 525.76 13.01C525.59 13.10 525.36 13.17 525.11 13.26C524.86 13.34 524.55 13.38 524.20 13.38C523.81 13.38 523.46 13.31 523.14 13.17C522.82 13.03 522.55 12.84 522.33 12.57C522.10 12.31 521.93 11.97 521.81 11.58C521.68 11.19 521.63 10.71 521.63 10.19L521.63 10.07L526.65 10.07C526.72 10.07 526.76 10.05 526.79 10.01C526.82 9.97 526.85 9.90 526.85 9.80C526.85 9.31 526.78 8.88 526.64 8.50C526.50 8.12 526.32 7.78 526.06 7.53C525.83 7.28 525.53 7.08 525.20 6.94C524.86 6.80 524.50 6.73 524.10 6.73ZM524.12 7.24C524.44 7.24 524.72 7.29 524.99 7.41C525.25 7.52 525.48 7.67 525.66 7.88C525.84 8.09 525.99 8.33 526.09 8.62C526.19 8.92 526.25 9.25 526.25 9.63L521.65 9.63C521.70 9.27 521.78 8.93 521.91 8.64C522.03 8.34 522.20 8.09 522.41 7.88C522.62 7.67 522.87 7.52 523.15 7.41C523.43 7.29 523.75 7.24 524.12 7.24ZM535.36 13.29C535.36 13.47 535.42 13.61 535.54 13.73C535.67 13.86 535.82 13.93 536.00 13.93C536.09 13.93 536.17 13.90 536.26 13.87C536.34 13.85 536.40 13.79 536.45 13.73C536.51 13.68 536.56 13.62 536.59 13.54C536.62 13.45 536.65 13.38 536.65 13.29C536.65 13.20 536.62 13.12 536.59 13.03C536.56 12.95 536.51 12.88 536.45 12.82C536.40 12.77 536.34 12.71 536.26 12.68C536.17 12.66 536.09 12.63 536.00 12.63C535.91 12.63 535.82 12.66 535.74 12.68C535.65 12.71 535.60 12.77 535.54 12.82C535.49 12.88 535.43 12.95 535.40 13.03C535.37 13.12 535.36 13.20 535.36 13.29Z"></path></g></svg>